solid

facet normal -1.0 0.0 0.0
outer loop
vertex 0.0 60.0 0.0
vertex 0.0 0.0 0.0
vertex 0.0 60.0 50.0
endloop
endfacet
facet normal -1.0 0.0 0.0
outer loop
vertex 0.0 0.0 0.0
vertex 0.0 0.0 50.0
vertex 0.0 60.0 50.0
endloop
endfacet
facet normal 0.0 -1.0 0.0
outer loop
vertex 200.0 0.0 0.0
vertex 200.0 0.0 50.0
vertex 0.0 0.0 0.0
endloop
endfacet
facet normal 0.0 -1.0 0.0
outer loop
vertex 0.0 0.0 0.0
vertex 200.0 0.0 50.0
vertex 0.0 0.0 50.0
endloop
endfacet
facet normal 0.0 0.0 1.0
outer loop
vertex 22.2851085663 23.6375751495 50.0
vertex 0.0 0.0 50.0
vertex 23.34674263 22.5344676971 50.0
endloop
endfacet
facet normal 0.0 0.0 1.0
outer loop
vertex 24.5643253326 21.6063461304 50.0
vertex 23.34674263 22.5344676971 50.0
vertex 0.0 0.0 50.0
endloop
endfacet
facet normal 0.0 0.0 1.0
outer loop
vertex 21.4043045044 24.8898124695 50.0
vertex 0.0 0.0 50.0
vertex 22.2851085663 23.6375751495 50.0
endloop
endfacet
facet normal 0.0 0.0 1.0
outer loop
vertex 25.9093132019 20.8749637604 50.0
vertex 24.5643253326 21.6063461304 50.0
vertex 0.0 0.0 50.0
endloop
endfacet
facet normal 0.0 0.0 1.0
outer loop
vertex 20.7249755859 26.2618293762 50.0
vertex 0.0 0.0 50.0
vertex 21.4043045044 24.8898124695 50.0
endloop
endfacet
facet normal 0.0 0.0 1.0
outer loop
vertex 27.3501853943 20.357465744 50.0
vertex 25.9093132019 20.8749637604 50.0
vertex 0.0 0.0 50.0
endloop
endfacet
facet normal 0.0 0.0 1.0
outer loop
vertex 20.2630462646 27.7214641571 50.0
vertex 0.0 0.0 50.0
vertex 20.7249755859 26.2618293762 50.0
endloop
endfacet
facet normal 0.0 0.0 1.0
outer loop
vertex 28.8531665802 20.0659790039 50.0
vertex 27.3501853943 20.357465744 50.0
vertex 0.0 0.0 50.0
endloop
endfacet
facet normal 0.0 0.0 1.0
outer loop
vertex 20.0293426514 29.2345066071 50.0
vertex 0.0 0.0 50.0
vertex 20.2630462646 27.7214641571 50.0
endloop
endfacet
facet normal 0.0 0.0 1.0
outer loop
vertex 30.3830280304 20.0073375702 50.0
vertex 28.8531665802 20.0659790039 50.0
vertex 0.0 0.0 50.0
endloop
endfacet
facet normal 0.0 0.0 1.0
outer loop
vertex 31.9039115906 20.1829166412 50.0
vertex 30.3830280304 20.0073375702 50.0
vertex 0.0 0.0 50.0
endloop
endfacet
facet normal 0.0 0.0 1.0
outer loop
vertex 0.0 60.0 50.0
vertex 21.4043045044 35.1101875305 50.0
vertex 22.2851085663 36.3624229431 50.0
endloop
endfacet
facet normal 0.0 0.0 1.0
outer loop
vertex 0.0 60.0 50.0
vertex 20.7249755859 33.7381706238 50.0
vertex 21.4043045044 35.1101875305 50.0
endloop
endfacet
facet normal 0.0 0.0 1.0
outer loop
vertex 0.0 60.0 50.0
vertex 20.2630462646 32.2785339355 50.0
vertex 20.7249755859 33.7381706238 50.0
endloop
endfacet
facet normal 0.0 0.0 1.0
outer loop
vertex 0.0 60.0 50.0
vertex 20.0293426514 30.7654933929 50.0
vertex 20.2630462646 32.2785339355 50.0
endloop
endfacet
facet normal 0.0 0.0 1.0
outer loop
vertex 0.0 60.0 50.0
vertex 20.0293426514 29.2345066071 50.0
vertex 20.0293426514 30.7654933929 50.0
endloop
endfacet
facet normal 0.0 0.0 1.0
outer loop
vertex 0.0 60.0 50.0
vertex 0.0 0.0 50.0
vertex 20.0293426514 29.2345066071 50.0
endloop
endfacet
facet normal 0.0 0.0 1.0
outer loop
vertex 23.34674263 37.4655303955 50.0
vertex 0.0 60.0 50.0
vertex 22.2851085663 36.3624229431 50.0
endloop
endfacet
facet normal 0.0 0.0 1.0
outer loop
vertex 24.5643253326 38.3936538696 50.0
vertex 0.0 60.0 50.0
vertex 23.34674263 37.4655303955 50.0
endloop
endfacet
facet normal 0.0 0.0 1.0
outer loop
vertex 25.9093132019 39.1250343323 50.0
vertex 0.0 60.0 50.0
vertex 24.5643253326 38.3936538696 50.0
endloop
endfacet
facet normal 0.0 0.0 1.0
outer loop
vertex 27.3501853943 39.6425361633 50.0
vertex 0.0 60.0 50.0
vertex 25.9093132019 39.1250343323 50.0
endloop
endfacet
facet normal 0.0 0.0 1.0
outer loop
vertex 28.8531665802 39.9340209961 50.0
vertex 0.0 60.0 50.0
vertex 27.3501853943 39.6425361633 50.0
endloop
endfacet
facet normal 0.0 0.0 1.0
outer loop
vertex 30.3830280304 39.9926605225 50.0
vertex 0.0 60.0 50.0
vertex 28.8531665802 39.9340209961 50.0
endloop
endfacet
facet normal 0.0 0.0 1.0
outer loop
vertex 31.9039115906 39.8170814514 50.0
vertex 0.0 60.0 50.0
vertex 30.3830280304 39.9926605225 50.0
endloop
endfacet
facet normal 0.0 0.0 1.0
outer loop
vertex 63.3467445374 22.5344676971 50.0
vertex 37.2052154541 23.0656757355 50.0
vertex 36.0622558594 22.0470714569 50.0
endloop
endfacet
facet normal 0.0 0.0 1.0
outer loop
vertex 62.2851066589 23.6375751495 50.0
vertex 38.1792945862 24.2468128204 50.0
vertex 37.2052154541 23.0656757355 50.0
endloop
endfacet
facet normal 0.0 0.0 1.0
outer loop
vertex 62.2851066589 23.6375751495 50.0
vertex 37.2052154541 23.0656757355 50.0
vertex 63.3467445374 22.5344676971 50.0
endloop
endfacet
facet normal 0.0 0.0 1.0
outer loop
vertex 64.5643234253 21.6063461304 50.0
vertex 36.0622558594 22.0470714569 50.0
vertex 34.7771987915 21.2148780823 50.0
endloop
endfacet
facet normal 0.0 0.0 1.0
outer loop
vertex 64.5643234253 21.6063461304 50.0
vertex 63.3467445374 22.5344676971 50.0
vertex 36.0622558594 22.0470714569 50.0
endloop
endfacet
facet normal 0.0 0.0 1.0
outer loop
vertex 61.4043045044 24.8898124695 50.0
vertex 38.1792945862 24.2468128204 50.0
vertex 62.2851066589 23.6375751495 50.0
endloop
endfacet
facet normal 0.0 0.0 1.0
outer loop
vertex 61.4043045044 24.8898124695 50.0
vertex 38.9616546631 25.5628013611 50.0
vertex 38.1792945862 24.2468128204 50.0
endloop
endfacet
facet normal 0.0 0.0 1.0
outer loop
vertex 65.9093170166 20.8749637604 50.0
vertex 34.7771987915 21.2148780823 50.0
vertex 33.3801689148 20.5886001587 50.0
endloop
endfacet
facet normal 0.0 0.0 1.0
outer loop
vertex 65.9093170166 20.8749637604 50.0
vertex 64.5643234253 21.6063461304 50.0
vertex 34.7771987915 21.2148780823 50.0
endloop
endfacet
facet normal 0.0 0.0 1.0
outer loop
vertex 60.7249755859 26.2618293762 50.0
vertex 38.9616546631 25.5628013611 50.0
vertex 61.4043045044 24.8898124695 50.0
endloop
endfacet
facet normal 0.0 0.0 1.0
outer loop
vertex 60.7249755859 26.2618293762 50.0
vertex 39.5339622498 26.982793808 50.0
vertex 38.9616546631 25.5628013611 50.0
endloop
endfacet
facet normal 0.0 0.0 1.0
outer loop
vertex 67.3501815796 20.357465744 50.0
vertex 33.3801689148 20.5886001587 50.0
vertex 31.9039115906 20.1829166412 50.0
endloop
endfacet
facet normal 0.0 0.0 1.0
outer loop
vertex 67.3501815796 20.357465744 50.0
vertex 31.9039115906 20.1829166412 50.0
vertex 0.0 0.0 50.0
endloop
endfacet
facet normal 0.0 0.0 1.0
outer loop
vertex 67.3501815796 20.357465744 50.0
vertex 65.9093170166 20.8749637604 50.0
vertex 33.3801689148 20.5886001587 50.0
endloop
endfacet
facet normal 0.0 0.0 1.0
outer loop
vertex 60.2630462646 27.7214641571 50.0
vertex 39.5339622498 26.982793808 50.0
vertex 60.7249755859 26.2618293762 50.0
endloop
endfacet
facet normal 0.0 0.0 1.0
outer loop
vertex 60.2630462646 27.7214641571 50.0
vertex 39.8828048706 28.4735069275 50.0
vertex 39.5339622498 26.982793808 50.0
endloop
endfacet
facet normal 0.0 0.0 1.0
outer loop
vertex 68.8531646729 20.0659790039 50.0
vertex 67.3501815796 20.357465744 50.0
vertex 0.0 0.0 50.0
endloop
endfacet
facet normal 0.0 0.0 1.0
outer loop
vertex 60.0293426514 29.2345066071 50.0
vertex 39.8828048706 28.4735069275 50.0
vertex 60.2630462646 27.7214641571 50.0
endloop
endfacet
facet normal 0.0 0.0 1.0
outer loop
vertex 60.0293426514 29.2345066071 50.0
vertex 40.0 30.0 50.0
vertex 39.8828048706 28.4735069275 50.0
endloop
endfacet
facet normal 0.0 0.0 1.0
outer loop
vertex 70.383026123 20.0073375702 50.0
vertex 68.8531646729 20.0659790039 50.0
vertex 0.0 0.0 50.0
endloop
endfacet
facet normal 0.0 0.0 1.0
outer loop
vertex 60.0293426514 30.7654933929 50.0
vertex 39.8828048706 31.5264930725 50.0
vertex 40.0 30.0 50.0
endloop
endfacet
facet normal 0.0 0.0 1.0
outer loop
vertex 60.0293426514 30.7654933929 50.0
vertex 40.0 30.0 50.0
vertex 60.0293426514 29.2345066071 50.0
endloop
endfacet
facet normal 0.0 0.0 1.0
outer loop
vertex 60.2630462646 32.2785339355 50.0
vertex 39.5339622498 33.0172042847 50.0
vertex 39.8828048706 31.5264930725 50.0
endloop
endfacet
facet normal 0.0 0.0 1.0
outer loop
vertex 60.2630462646 32.2785339355 50.0
vertex 39.8828048706 31.5264930725 50.0
vertex 60.0293426514 30.7654933929 50.0
endloop
endfacet
facet normal 0.0 0.0 1.0
outer loop
vertex 60.7249755859 33.7381706238 50.0
vertex 38.9616546631 34.4371986389 50.0
vertex 39.5339622498 33.0172042847 50.0
endloop
endfacet
facet normal 0.0 0.0 1.0
outer loop
vertex 60.7249755859 33.7381706238 50.0
vertex 39.5339622498 33.0172042847 50.0
vertex 60.2630462646 32.2785339355 50.0
endloop
endfacet
facet normal 0.0 0.0 1.0
outer loop
vertex 61.4043045044 35.1101875305 50.0
vertex 38.1792945862 35.7531852722 50.0
vertex 38.9616546631 34.4371986389 50.0
endloop
endfacet
facet normal 0.0 0.0 1.0
outer loop
vertex 61.4043045044 35.1101875305 50.0
vertex 38.9616546631 34.4371986389 50.0
vertex 60.7249755859 33.7381706238 50.0
endloop
endfacet
facet normal 0.0 0.0 1.0
outer loop
vertex 62.2851066589 36.3624229431 50.0
vertex 37.2052154541 36.9343261719 50.0
vertex 38.1792945862 35.7531852722 50.0
endloop
endfacet
facet normal 0.0 0.0 1.0
outer loop
vertex 62.2851066589 36.3624229431 50.0
vertex 38.1792945862 35.7531852722 50.0
vertex 61.4043045044 35.1101875305 50.0
endloop
endfacet
facet normal 0.0 0.0 1.0
outer loop
vertex 63.3467445374 37.4655303955 50.0
vertex 36.0622558594 37.9529304504 50.0
vertex 37.2052154541 36.9343261719 50.0
endloop
endfacet
facet normal 0.0 0.0 1.0
outer loop
vertex 63.3467445374 37.4655303955 50.0
vertex 37.2052154541 36.9343261719 50.0
vertex 62.2851066589 36.3624229431 50.0
endloop
endfacet
facet normal 0.0 0.0 1.0
outer loop
vertex 64.5643234253 38.3936538696 50.0
vertex 34.7771987915 38.7851219177 50.0
vertex 36.0622558594 37.9529304504 50.0
endloop
endfacet
facet normal 0.0 0.0 1.0
outer loop
vertex 64.5643234253 38.3936538696 50.0
vertex 36.0622558594 37.9529304504 50.0
vertex 63.3467445374 37.4655303955 50.0
endloop
endfacet
facet normal 0.0 0.0 1.0
outer loop
vertex 65.9093170166 39.1250343323 50.0
vertex 33.3801689148 39.4113998413 50.0
vertex 34.7771987915 38.7851219177 50.0
endloop
endfacet
facet normal 0.0 0.0 1.0
outer loop
vertex 65.9093170166 39.1250343323 50.0
vertex 34.7771987915 38.7851219177 50.0
vertex 64.5643234253 38.3936538696 50.0
endloop
endfacet
facet normal 0.0 0.0 1.0
outer loop
vertex 67.3501815796 39.6425361633 50.0
vertex 0.0 60.0 50.0
vertex 31.9039115906 39.8170814514 50.0
endloop
endfacet
facet normal 0.0 0.0 1.0
outer loop
vertex 67.3501815796 39.6425361633 50.0
vertex 31.9039115906 39.8170814514 50.0
vertex 33.3801689148 39.4113998413 50.0
endloop
endfacet
facet normal 0.0 0.0 1.0
outer loop
vertex 67.3501815796 39.6425361633 50.0
vertex 33.3801689148 39.4113998413 50.0
vertex 65.9093170166 39.1250343323 50.0
endloop
endfacet
facet normal 0.0 0.0 1.0
outer loop
vertex 68.8531646729 39.9340209961 50.0
vertex 0.0 60.0 50.0
vertex 67.3501815796 39.6425361633 50.0
endloop
endfacet
facet normal 0.0 0.0 1.0
outer loop
vertex 103.346740723 22.5344676971 50.0
vertex 77.2052154541 23.0656757355 50.0
vertex 76.0622558594 22.0470714569 50.0
endloop
endfacet
facet normal 0.0 0.0 1.0
outer loop
vertex 102.285110474 23.6375751495 50.0
vertex 77.2052154541 23.0656757355 50.0
vertex 103.346740723 22.5344676971 50.0
endloop
endfacet
facet normal 0.0 0.0 1.0
outer loop
vertex 102.285110474 23.6375751495 50.0
vertex 78.1792907715 24.2468128204 50.0
vertex 77.2052154541 23.0656757355 50.0
endloop
endfacet
facet normal 0.0 0.0 1.0
outer loop
vertex 104.564323425 21.6063461304 50.0
vertex 103.346740723 22.5344676971 50.0
vertex 76.0622558594 22.0470714569 50.0
endloop
endfacet
facet normal 0.0 0.0 1.0
outer loop
vertex 104.564323425 21.6063461304 50.0
vertex 76.0622558594 22.0470714569 50.0
vertex 74.7771987915 21.2148780823 50.0
endloop
endfacet
facet normal 0.0 0.0 1.0
outer loop
vertex 101.404304504 24.8898124695 50.0
vertex 78.9616546631 25.5628013611 50.0
vertex 78.1792907715 24.2468128204 50.0
endloop
endfacet
facet normal 0.0 0.0 1.0
outer loop
vertex 101.404304504 24.8898124695 50.0
vertex 78.1792907715 24.2468128204 50.0
vertex 102.285110474 23.6375751495 50.0
endloop
endfacet
facet normal 0.0 0.0 1.0
outer loop
vertex 105.909317017 20.8749637604 50.0
vertex 104.564323425 21.6063461304 50.0
vertex 74.7771987915 21.2148780823 50.0
endloop
endfacet
facet normal 0.0 0.0 1.0
outer loop
vertex 105.909317017 20.8749637604 50.0
vertex 74.7771987915 21.2148780823 50.0
vertex 73.3801651001 20.5886001587 50.0
endloop
endfacet
facet normal 0.0 0.0 1.0
outer loop
vertex 100.724975586 26.2618293762 50.0
vertex 78.9616546631 25.5628013611 50.0
vertex 101.404304504 24.8898124695 50.0
endloop
endfacet
facet normal 0.0 0.0 1.0
outer loop
vertex 100.724975586 26.2618293762 50.0
vertex 79.5339660645 26.982793808 50.0
vertex 78.9616546631 25.5628013611 50.0
endloop
endfacet
facet normal 0.0 0.0 1.0
outer loop
vertex 107.35018158 20.357465744 50.0
vertex 105.909317017 20.8749637604 50.0
vertex 73.3801651001 20.5886001587 50.0
endloop
endfacet
facet normal 0.0 0.0 1.0
outer loop
vertex 107.35018158 20.357465744 50.0
vertex 73.3801651001 20.5886001587 50.0
vertex 71.9039077759 20.1829166412 50.0
endloop
endfacet
facet normal 0.0 0.0 1.0
outer loop
vertex 100.263046265 27.7214641571 50.0
vertex 79.5339660645 26.982793808 50.0
vertex 100.724975586 26.2618293762 50.0
endloop
endfacet
facet normal 0.0 0.0 1.0
outer loop
vertex 100.263046265 27.7214641571 50.0
vertex 79.8828048706 28.4735069275 50.0
vertex 79.5339660645 26.982793808 50.0
endloop
endfacet
facet normal 0.0 0.0 1.0
outer loop
vertex 108.853164673 20.0659790039 50.0
vertex 107.35018158 20.357465744 50.0
vertex 71.9039077759 20.1829166412 50.0
endloop
endfacet
facet normal 0.0 0.0 1.0
outer loop
vertex 108.853164673 20.0659790039 50.0
vertex 70.383026123 20.0073375702 50.0
vertex 0.0 0.0 50.0
endloop
endfacet
facet normal 0.0 0.0 1.0
outer loop
vertex 108.853164673 20.0659790039 50.0
vertex 71.9039077759 20.1829166412 50.0
vertex 70.383026123 20.0073375702 50.0
endloop
endfacet
facet normal 0.0 0.0 1.0
outer loop
vertex 100.029342651 29.2345066071 50.0
vertex 79.8828048706 28.4735069275 50.0
vertex 100.263046265 27.7214641571 50.0
endloop
endfacet
facet normal 0.0 0.0 1.0
outer loop
vertex 100.029342651 29.2345066071 50.0
vertex 80.0 30.0 50.0
vertex 79.8828048706 28.4735069275 50.0
endloop
endfacet
facet normal 0.0 0.0 1.0
outer loop
vertex 110.383026123 20.0073375702 50.0
vertex 108.853164673 20.0659790039 50.0
vertex 0.0 0.0 50.0
endloop
endfacet
facet normal 0.0 0.0 1.0
outer loop
vertex 100.029342651 30.7654933929 50.0
vertex 79.8828048706 31.5264930725 50.0
vertex 80.0 30.0 50.0
endloop
endfacet
facet normal 0.0 0.0 1.0
outer loop
vertex 100.029342651 30.7654933929 50.0
vertex 80.0 30.0 50.0
vertex 100.029342651 29.2345066071 50.0
endloop
endfacet
facet normal 0.0 0.0 1.0
outer loop
vertex 100.263046265 32.2785339355 50.0
vertex 79.8828048706 31.5264930725 50.0
vertex 100.029342651 30.7654933929 50.0
endloop
endfacet
facet normal 0.0 0.0 1.0
outer loop
vertex 100.263046265 32.2785339355 50.0
vertex 79.5339660645 33.0172042847 50.0
vertex 79.8828048706 31.5264930725 50.0
endloop
endfacet
facet normal 0.0 0.0 1.0
outer loop
vertex 100.724975586 33.7381706238 50.0
vertex 78.9616546631 34.4371986389 50.0
vertex 79.5339660645 33.0172042847 50.0
endloop
endfacet
facet normal 0.0 0.0 1.0
outer loop
vertex 100.724975586 33.7381706238 50.0
vertex 79.5339660645 33.0172042847 50.0
vertex 100.263046265 32.2785339355 50.0
endloop
endfacet
facet normal 0.0 0.0 1.0
outer loop
vertex 101.404304504 35.1101875305 50.0
vertex 78.9616546631 34.4371986389 50.0
vertex 100.724975586 33.7381706238 50.0
endloop
endfacet
facet normal 0.0 0.0 1.0
outer loop
vertex 101.404304504 35.1101875305 50.0
vertex 78.1792907715 35.7531852722 50.0
vertex 78.9616546631 34.4371986389 50.0
endloop
endfacet
facet normal 0.0 0.0 1.0
outer loop
vertex 102.285110474 36.3624229431 50.0
vertex 77.2052154541 36.9343261719 50.0
vertex 78.1792907715 35.7531852722 50.0
endloop
endfacet
facet normal 0.0 0.0 1.0
outer loop
vertex 102.285110474 36.3624229431 50.0
vertex 78.1792907715 35.7531852722 50.0
vertex 101.404304504 35.1101875305 50.0
endloop
endfacet
facet normal 0.0 0.0 1.0
outer loop
vertex 103.346740723 37.4655303955 50.0
vertex 77.2052154541 36.9343261719 50.0
vertex 102.285110474 36.3624229431 50.0
endloop
endfacet
facet normal 0.0 0.0 1.0
outer loop
vertex 103.346740723 37.4655303955 50.0
vertex 76.0622558594 37.9529304504 50.0
vertex 77.2052154541 36.9343261719 50.0
endloop
endfacet
facet normal 0.0 0.0 1.0
outer loop
vertex 104.564323425 38.3936538696 50.0
vertex 74.7771987915 38.7851219177 50.0
vertex 76.0622558594 37.9529304504 50.0
endloop
endfacet
facet normal 0.0 0.0 1.0
outer loop
vertex 104.564323425 38.3936538696 50.0
vertex 76.0622558594 37.9529304504 50.0
vertex 103.346740723 37.4655303955 50.0
endloop
endfacet
facet normal 0.0 0.0 1.0
outer loop
vertex 105.909317017 39.1250343323 50.0
vertex 74.7771987915 38.7851219177 50.0
vertex 104.564323425 38.3936538696 50.0
endloop
endfacet
facet normal 0.0 0.0 1.0
outer loop
vertex 105.909317017 39.1250343323 50.0
vertex 73.3801651001 39.4113998413 50.0
vertex 74.7771987915 38.7851219177 50.0
endloop
endfacet
facet normal 0.0 0.0 1.0
outer loop
vertex 107.35018158 39.6425361633 50.0
vertex 73.3801651001 39.4113998413 50.0
vertex 105.909317017 39.1250343323 50.0
endloop
endfacet
facet normal 0.0 0.0 1.0
outer loop
vertex 107.35018158 39.6425361633 50.0
vertex 71.9039077759 39.8170814514 50.0
vertex 73.3801651001 39.4113998413 50.0
endloop
endfacet
facet normal 0.0 0.0 1.0
outer loop
vertex 108.853164673 39.9340209961 50.0
vertex 71.9039077759 39.8170814514 50.0
vertex 107.35018158 39.6425361633 50.0
endloop
endfacet
facet normal 0.0 0.0 1.0
outer loop
vertex 200.0 0.0 50.0
vertex 111.903907776 20.1829166412 50.0
vertex 110.383026123 20.0073375702 50.0
endloop
endfacet
facet normal 0.0 0.0 1.0
outer loop
vertex 200.0 0.0 50.0
vertex 113.3801651 20.5886001587 50.0
vertex 111.903907776 20.1829166412 50.0
endloop
endfacet
facet normal 0.0 0.0 1.0
outer loop
vertex 200.0 0.0 50.0
vertex 114.777198792 21.2148780823 50.0
vertex 113.3801651 20.5886001587 50.0
endloop
endfacet
facet normal 0.0 0.0 1.0
outer loop
vertex 200.0 0.0 50.0
vertex 116.062255859 22.0470714569 50.0
vertex 114.777198792 21.2148780823 50.0
endloop
endfacet
facet normal 0.0 0.0 1.0
outer loop
vertex 200.0 0.0 50.0
vertex 117.205215454 23.0656757355 50.0
vertex 116.062255859 22.0470714569 50.0
endloop
endfacet
facet normal 0.0 0.0 1.0
outer loop
vertex 200.0 0.0 50.0
vertex 118.179290771 24.2468128204 50.0
vertex 117.205215454 23.0656757355 50.0
endloop
endfacet
facet normal 0.0 0.0 1.0
outer loop
vertex 200.0 0.0 50.0
vertex 118.961654663 25.5628013611 50.0
vertex 118.179290771 24.2468128204 50.0
endloop
endfacet
facet normal 0.0 0.0 1.0
outer loop
vertex 200.0 0.0 50.0
vertex 119.533966064 26.982793808 50.0
vertex 118.961654663 25.5628013611 50.0
endloop
endfacet
facet normal 0.0 0.0 1.0
outer loop
vertex 200.0 0.0 50.0
vertex 119.882804871 28.4735069275 50.0
vertex 119.533966064 26.982793808 50.0
endloop
endfacet
facet normal 0.0 0.0 1.0
outer loop
vertex 200.0 0.0 50.0
vertex 120.0 30.0 50.0
vertex 119.882804871 28.4735069275 50.0
endloop
endfacet
facet normal 0.0 0.0 1.0
outer loop
vertex 200.0 0.0 50.0
vertex 110.383026123 20.0073375702 50.0
vertex 0.0 0.0 50.0
endloop
endfacet
facet normal 0.0 0.0 1.0
outer loop
vertex 200.0 60.0 50.0
vertex 120.0 30.0 50.0
vertex 200.0 0.0 50.0
endloop
endfacet
facet normal 0.0 0.0 1.0
outer loop
vertex 200.0 60.0 50.0
vertex 119.882804871 31.5264930725 50.0
vertex 120.0 30.0 50.0
endloop
endfacet
facet normal 0.0 0.0 1.0
outer loop
vertex 200.0 60.0 50.0
vertex 119.533966064 33.0172042847 50.0
vertex 119.882804871 31.5264930725 50.0
endloop
endfacet
facet normal 0.0 0.0 1.0
outer loop
vertex 200.0 60.0 50.0
vertex 118.961654663 34.4371986389 50.0
vertex 119.533966064 33.0172042847 50.0
endloop
endfacet
facet normal 0.0 0.0 1.0
outer loop
vertex 200.0 60.0 50.0
vertex 118.179290771 35.7531852722 50.0
vertex 118.961654663 34.4371986389 50.0
endloop
endfacet
facet normal 0.0 0.0 1.0
outer loop
vertex 200.0 60.0 50.0
vertex 117.205215454 36.9343261719 50.0
vertex 118.179290771 35.7531852722 50.0
endloop
endfacet
facet normal 0.0 0.0 1.0
outer loop
vertex 200.0 60.0 50.0
vertex 116.062255859 37.9529304504 50.0
vertex 117.205215454 36.9343261719 50.0
endloop
endfacet
facet normal 0.0 0.0 1.0
outer loop
vertex 200.0 60.0 50.0
vertex 114.777198792 38.7851219177 50.0
vertex 116.062255859 37.9529304504 50.0
endloop
endfacet
facet normal 0.0 0.0 1.0
outer loop
vertex 200.0 60.0 50.0
vertex 113.3801651 39.4113998413 50.0
vertex 114.777198792 38.7851219177 50.0
endloop
endfacet
facet normal 0.0 0.0 1.0
outer loop
vertex 200.0 60.0 50.0
vertex 111.903907776 39.8170814514 50.0
vertex 113.3801651 39.4113998413 50.0
endloop
endfacet
facet normal 0.0 0.0 1.0
outer loop
vertex 200.0 60.0 50.0
vertex 0.0 60.0 50.0
vertex 70.383026123 39.9926605225 50.0
endloop
endfacet
facet normal 0.0 0.0 1.0
outer loop
vertex 70.383026123 39.9926605225 50.0
vertex 0.0 60.0 50.0
vertex 68.8531646729 39.9340209961 50.0
endloop
endfacet
facet normal 0.0 0.0 1.0
outer loop
vertex 200.0 60.0 50.0
vertex 70.383026123 39.9926605225 50.0
vertex 71.9039077759 39.8170814514 50.0
endloop
endfacet
facet normal 0.0 0.0 1.0
outer loop
vertex 200.0 60.0 50.0
vertex 71.9039077759 39.8170814514 50.0
vertex 108.853164673 39.9340209961 50.0
endloop
endfacet
facet normal 0.0 0.0 1.0
outer loop
vertex 200.0 60.0 50.0
vertex 108.853164673 39.9340209961 50.0
vertex 110.383026123 39.9926605225 50.0
endloop
endfacet
facet normal 0.0 0.0 1.0
outer loop
vertex 200.0 60.0 50.0
vertex 110.383026123 39.9926605225 50.0
vertex 111.903907776 39.8170814514 50.0
endloop
endfacet
facet normal 0.0 1.0 0.0
outer loop
vertex 200.0 60.0 50.0
vertex 200.0 60.0 0.0
vertex 0.0 60.0 0.0
endloop
endfacet
facet normal 0.0 1.0 0.0
outer loop
vertex 200.0 60.0 50.0
vertex 0.0 60.0 0.0
vertex 0.0 60.0 50.0
endloop
endfacet
facet normal 0.0 0.0 -1.0
outer loop
vertex 0.0 0.0 0.0
vertex 22.2851085663 23.6375751495 0.0
vertex 23.34674263 22.5344676971 0.0
endloop
endfacet
facet normal 0.0 -0.0 -1.0
outer loop
vertex 23.34674263 22.5344676971 0.0
vertex 24.5643253326 21.6063461304 0.0
vertex 0.0 0.0 0.0
endloop
endfacet
facet normal 0.0 0.0 -1.0
outer loop
vertex 0.0 0.0 0.0
vertex 21.4043045044 24.8898124695 0.0
vertex 22.2851085663 23.6375751495 0.0
endloop
endfacet
facet normal 0.0 -0.0 -1.0
outer loop
vertex 24.5643253326 21.6063461304 0.0
vertex 25.9093132019 20.8749637604 0.0
vertex 0.0 0.0 0.0
endloop
endfacet
facet normal 0.0 0.0 -1.0
outer loop
vertex 0.0 0.0 0.0
vertex 20.7249755859 26.2618293762 0.0
vertex 21.4043045044 24.8898124695 0.0
endloop
endfacet
facet normal 0.0 -0.0 -1.0
outer loop
vertex 25.9093132019 20.8749637604 0.0
vertex 27.3501853943 20.357465744 0.0
vertex 0.0 0.0 0.0
endloop
endfacet
facet normal 0.0 0.0 -1.0
outer loop
vertex 0.0 0.0 0.0
vertex 20.2630462646 27.7214641571 0.0
vertex 20.7249755859 26.2618293762 0.0
endloop
endfacet
facet normal 0.0 -0.0 -1.0
outer loop
vertex 27.3501853943 20.357465744 0.0
vertex 28.8531665802 20.0659790039 0.0
vertex 0.0 0.0 0.0
endloop
endfacet
facet normal 0.0 0.0 -1.0
outer loop
vertex 0.0 0.0 0.0
vertex 20.0293426514 29.2345066071 0.0
vertex 20.2630462646 27.7214641571 0.0
endloop
endfacet
facet normal 0.0 -0.0 -1.0
outer loop
vertex 28.8531665802 20.0659790039 0.0
vertex 30.3830280304 20.0073375702 0.0
vertex 0.0 0.0 0.0
endloop
endfacet
facet normal 0.0 -0.0 -1.0
outer loop
vertex 30.3830280304 20.0073375702 0.0
vertex 31.9039115906 20.1829166412 0.0
vertex 0.0 0.0 0.0
endloop
endfacet
facet normal 0.0 0.0 -1.0
outer loop
vertex 21.4043045044 35.1101875305 0.0
vertex 0.0 60.0 0.0
vertex 22.2851085663 36.3624229431 0.0
endloop
endfacet
facet normal 0.0 0.0 -1.0
outer loop
vertex 20.7249755859 33.7381706238 0.0
vertex 0.0 60.0 0.0
vertex 21.4043045044 35.1101875305 0.0
endloop
endfacet
facet normal 0.0 0.0 -1.0
outer loop
vertex 20.2630462646 32.2785339355 0.0
vertex 0.0 60.0 0.0
vertex 20.7249755859 33.7381706238 0.0
endloop
endfacet
facet normal 0.0 0.0 -1.0
outer loop
vertex 20.0293426514 30.7654933929 0.0
vertex 0.0 60.0 0.0
vertex 20.2630462646 32.2785339355 0.0
endloop
endfacet
facet normal 0.0 0.0 -1.0
outer loop
vertex 20.0293426514 29.2345066071 0.0
vertex 0.0 60.0 0.0
vertex 20.0293426514 30.7654933929 0.0
endloop
endfacet
facet normal 0.0 0.0 -1.0
outer loop
vertex 0.0 0.0 0.0
vertex 0.0 60.0 0.0
vertex 20.0293426514 29.2345066071 0.0
endloop
endfacet
facet normal 0.0 0.0 -1.0
outer loop
vertex 0.0 60.0 0.0
vertex 23.34674263 37.4655303955 0.0
vertex 22.2851085663 36.3624229431 0.0
endloop
endfacet
facet normal 0.0 0.0 -1.0
outer loop
vertex 0.0 60.0 0.0
vertex 24.5643253326 38.3936538696 0.0
vertex 23.34674263 37.4655303955 0.0
endloop
endfacet
facet normal 0.0 0.0 -1.0
outer loop
vertex 0.0 60.0 0.0
vertex 25.9093132019 39.1250343323 0.0
vertex 24.5643253326 38.3936538696 0.0
endloop
endfacet
facet normal 0.0 0.0 -1.0
outer loop
vertex 0.0 60.0 0.0
vertex 27.3501853943 39.6425361633 0.0
vertex 25.9093132019 39.1250343323 0.0
endloop
endfacet
facet normal 0.0 0.0 -1.0
outer loop
vertex 0.0 60.0 0.0
vertex 28.8531665802 39.9340209961 0.0
vertex 27.3501853943 39.6425361633 0.0
endloop
endfacet
facet normal 0.0 0.0 -1.0
outer loop
vertex 0.0 60.0 0.0
vertex 30.3830280304 39.9926605225 0.0
vertex 28.8531665802 39.9340209961 0.0
endloop
endfacet
facet normal 0.0 0.0 -1.0
outer loop
vertex 0.0 60.0 0.0
vertex 31.9039115906 39.8170814514 0.0
vertex 30.3830280304 39.9926605225 0.0
endloop
endfacet
facet normal 0.0 -0.0 -1.0
outer loop
vertex 37.2052154541 23.0656757355 0.0
vertex 63.3467445374 22.5344676971 0.0
vertex 36.0622558594 22.0470714569 0.0
endloop
endfacet
facet normal 0.0 -0.0 -1.0
outer loop
vertex 38.1792945862 24.2468128204 0.0
vertex 62.2851066589 23.6375751495 0.0
vertex 37.2052154541 23.0656757355 0.0
endloop
endfacet
facet normal 0.0 0.0 -1.0
outer loop
vertex 37.2052154541 23.0656757355 0.0
vertex 62.2851066589 23.6375751495 0.0
vertex 63.3467445374 22.5344676971 0.0
endloop
endfacet
facet normal 0.0 -0.0 -1.0
outer loop
vertex 36.0622558594 22.0470714569 0.0
vertex 64.5643234253 21.6063461304 0.0
vertex 34.7771987915 21.2148780823 0.0
endloop
endfacet
facet normal 0.0 -0.0 -1.0
outer loop
vertex 63.3467445374 22.5344676971 0.0
vertex 64.5643234253 21.6063461304 0.0
vertex 36.0622558594 22.0470714569 0.0
endloop
endfacet
facet normal 0.0 0.0 -1.0
outer loop
vertex 38.1792945862 24.2468128204 0.0
vertex 61.4043045044 24.8898124695 0.0
vertex 62.2851066589 23.6375751495 0.0
endloop
endfacet
facet normal 0.0 -0.0 -1.0
outer loop
vertex 38.9616546631 25.5628013611 0.0
vertex 61.4043045044 24.8898124695 0.0
vertex 38.1792945862 24.2468128204 0.0
endloop
endfacet
facet normal 0.0 -0.0 -1.0
outer loop
vertex 34.7771987915 21.2148780823 0.0
vertex 65.9093170166 20.8749637604 0.0
vertex 33.3801689148 20.5886001587 0.0
endloop
endfacet
facet normal 0.0 -0.0 -1.0
outer loop
vertex 64.5643234253 21.6063461304 0.0
vertex 65.9093170166 20.8749637604 0.0
vertex 34.7771987915 21.2148780823 0.0
endloop
endfacet
facet normal 0.0 0.0 -1.0
outer loop
vertex 38.9616546631 25.5628013611 0.0
vertex 60.7249755859 26.2618293762 0.0
vertex 61.4043045044 24.8898124695 0.0
endloop
endfacet
facet normal 0.0 -0.0 -1.0
outer loop
vertex 39.5339622498 26.982793808 0.0
vertex 60.7249755859 26.2618293762 0.0
vertex 38.9616546631 25.5628013611 0.0
endloop
endfacet
facet normal 0.0 -0.0 -1.0
outer loop
vertex 33.3801689148 20.5886001587 0.0
vertex 67.3501815796 20.357465744 0.0
vertex 31.9039115906 20.1829166412 0.0
endloop
endfacet
facet normal 0.0 -0.0 -1.0
outer loop
vertex 31.9039115906 20.1829166412 0.0
vertex 67.3501815796 20.357465744 0.0
vertex 0.0 0.0 0.0
endloop
endfacet
facet normal 0.0 -0.0 -1.0
outer loop
vertex 65.9093170166 20.8749637604 0.0
vertex 67.3501815796 20.357465744 0.0
vertex 33.3801689148 20.5886001587 0.0
endloop
endfacet
facet normal 0.0 0.0 -1.0
outer loop
vertex 39.5339622498 26.982793808 0.0
vertex 60.2630462646 27.7214641571 0.0
vertex 60.7249755859 26.2618293762 0.0
endloop
endfacet
facet normal 0.0 -0.0 -1.0
outer loop
vertex 39.8828048706 28.4735069275 0.0
vertex 60.2630462646 27.7214641571 0.0
vertex 39.5339622498 26.982793808 0.0
endloop
endfacet
facet normal 0.0 -0.0 -1.0
outer loop
vertex 67.3501815796 20.357465744 0.0
vertex 68.8531646729 20.0659790039 0.0
vertex 0.0 0.0 0.0
endloop
endfacet
facet normal 0.0 0.0 -1.0
outer loop
vertex 39.8828048706 28.4735069275 0.0
vertex 60.0293426514 29.2345066071 0.0
vertex 60.2630462646 27.7214641571 0.0
endloop
endfacet
facet normal 0.0 -0.0 -1.0
outer loop
vertex 40.0 30.0 0.0
vertex 60.0293426514 29.2345066071 0.0
vertex 39.8828048706 28.4735069275 0.0
endloop
endfacet
facet normal 0.0 -0.0 -1.0
outer loop
vertex 68.8531646729 20.0659790039 0.0
vertex 70.383026123 20.0073375702 0.0
vertex 0.0 0.0 0.0
endloop
endfacet
facet normal 0.0 0.0 -1.0
outer loop
vertex 39.8828048706 31.5264930725 0.0
vertex 60.0293426514 30.7654933929 0.0
vertex 40.0 30.0 0.0
endloop
endfacet
facet normal 0.0 0.0 -1.0
outer loop
vertex 40.0 30.0 0.0
vertex 60.0293426514 30.7654933929 0.0
vertex 60.0293426514 29.2345066071 0.0
endloop
endfacet
facet normal 0.0 0.0 -1.0
outer loop
vertex 39.5339622498 33.0172042847 0.0
vertex 60.2630462646 32.2785339355 0.0
vertex 39.8828048706 31.5264930725 0.0
endloop
endfacet
facet normal 0.0 0.0 -1.0
outer loop
vertex 39.8828048706 31.5264930725 0.0
vertex 60.2630462646 32.2785339355 0.0
vertex 60.0293426514 30.7654933929 0.0
endloop
endfacet
facet normal 0.0 0.0 -1.0
outer loop
vertex 38.9616546631 34.4371986389 0.0
vertex 60.7249755859 33.7381706238 0.0
vertex 39.5339622498 33.0172042847 0.0
endloop
endfacet
facet normal 0.0 0.0 -1.0
outer loop
vertex 39.5339622498 33.0172042847 0.0
vertex 60.7249755859 33.7381706238 0.0
vertex 60.2630462646 32.2785339355 0.0
endloop
endfacet
facet normal 0.0 0.0 -1.0
outer loop
vertex 38.1792945862 35.7531852722 0.0
vertex 61.4043045044 35.1101875305 0.0
vertex 38.9616546631 34.4371986389 0.0
endloop
endfacet
facet normal 0.0 0.0 -1.0
outer loop
vertex 38.9616546631 34.4371986389 0.0
vertex 61.4043045044 35.1101875305 0.0
vertex 60.7249755859 33.7381706238 0.0
endloop
endfacet
facet normal 0.0 0.0 -1.0
outer loop
vertex 37.2052154541 36.9343261719 0.0
vertex 62.2851066589 36.3624229431 0.0
vertex 38.1792945862 35.7531852722 0.0
endloop
endfacet
facet normal 0.0 0.0 -1.0
outer loop
vertex 38.1792945862 35.7531852722 0.0
vertex 62.2851066589 36.3624229431 0.0
vertex 61.4043045044 35.1101875305 0.0
endloop
endfacet
facet normal 0.0 0.0 -1.0
outer loop
vertex 36.0622558594 37.9529304504 0.0
vertex 63.3467445374 37.4655303955 0.0
vertex 37.2052154541 36.9343261719 0.0
endloop
endfacet
facet normal 0.0 0.0 -1.0
outer loop
vertex 37.2052154541 36.9343261719 0.0
vertex 63.3467445374 37.4655303955 0.0
vertex 62.2851066589 36.3624229431 0.0
endloop
endfacet
facet normal 0.0 0.0 -1.0
outer loop
vertex 34.7771987915 38.7851219177 0.0
vertex 64.5643234253 38.3936538696 0.0
vertex 36.0622558594 37.9529304504 0.0
endloop
endfacet
facet normal 0.0 0.0 -1.0
outer loop
vertex 36.0622558594 37.9529304504 0.0
vertex 64.5643234253 38.3936538696 0.0
vertex 63.3467445374 37.4655303955 0.0
endloop
endfacet
facet normal 0.0 0.0 -1.0
outer loop
vertex 33.3801689148 39.4113998413 0.0
vertex 65.9093170166 39.1250343323 0.0
vertex 34.7771987915 38.7851219177 0.0
endloop
endfacet
facet normal 0.0 0.0 -1.0
outer loop
vertex 34.7771987915 38.7851219177 0.0
vertex 65.9093170166 39.1250343323 0.0
vertex 64.5643234253 38.3936538696 0.0
endloop
endfacet
facet normal 0.0 0.0 -1.0
outer loop
vertex 0.0 60.0 0.0
vertex 67.3501815796 39.6425361633 0.0
vertex 31.9039115906 39.8170814514 0.0
endloop
endfacet
facet normal 0.0 0.0 -1.0
outer loop
vertex 31.9039115906 39.8170814514 0.0
vertex 67.3501815796 39.6425361633 0.0
vertex 33.3801689148 39.4113998413 0.0
endloop
endfacet
facet normal 0.0 0.0 -1.0
outer loop
vertex 33.3801689148 39.4113998413 0.0
vertex 67.3501815796 39.6425361633 0.0
vertex 65.9093170166 39.1250343323 0.0
endloop
endfacet
facet normal 0.0 0.0 -1.0
outer loop
vertex 0.0 60.0 0.0
vertex 68.8531646729 39.9340209961 0.0
vertex 67.3501815796 39.6425361633 0.0
endloop
endfacet
facet normal 0.0 -0.0 -1.0
outer loop
vertex 77.2052154541 23.0656757355 0.0
vertex 103.346740723 22.5344676971 0.0
vertex 76.0622558594 22.0470714569 0.0
endloop
endfacet
facet normal 0.0 0.0 -1.0
outer loop
vertex 77.2052154541 23.0656757355 0.0
vertex 102.285110474 23.6375751495 0.0
vertex 103.346740723 22.5344676971 0.0
endloop
endfacet
facet normal 0.0 -0.0 -1.0
outer loop
vertex 78.1792907715 24.2468128204 0.0
vertex 102.285110474 23.6375751495 0.0
vertex 77.2052154541 23.0656757355 0.0
endloop
endfacet
facet normal 0.0 -0.0 -1.0
outer loop
vertex 103.346740723 22.5344676971 0.0
vertex 104.564323425 21.6063461304 0.0
vertex 76.0622558594 22.0470714569 0.0
endloop
endfacet
facet normal 0.0 -0.0 -1.0
outer loop
vertex 76.0622558594 22.0470714569 0.0
vertex 104.564323425 21.6063461304 0.0
vertex 74.7771987915 21.2148780823 0.0
endloop
endfacet
facet normal 0.0 -0.0 -1.0
outer loop
vertex 78.9616546631 25.5628013611 0.0
vertex 101.404304504 24.8898124695 0.0
vertex 78.1792907715 24.2468128204 0.0
endloop
endfacet
facet normal 0.0 0.0 -1.0
outer loop
vertex 78.1792907715 24.2468128204 0.0
vertex 101.404304504 24.8898124695 0.0
vertex 102.285110474 23.6375751495 0.0
endloop
endfacet
facet normal 0.0 -0.0 -1.0
outer loop
vertex 104.564323425 21.6063461304 0.0
vertex 105.909317017 20.8749637604 0.0
vertex 74.7771987915 21.2148780823 0.0
endloop
endfacet
facet normal 0.0 -0.0 -1.0
outer loop
vertex 74.7771987915 21.2148780823 0.0
vertex 105.909317017 20.8749637604 0.0
vertex 73.3801651001 20.5886001587 0.0
endloop
endfacet
facet normal 0.0 0.0 -1.0
outer loop
vertex 78.9616546631 25.5628013611 0.0
vertex 100.724975586 26.2618293762 0.0
vertex 101.404304504 24.8898124695 0.0
endloop
endfacet
facet normal 0.0 -0.0 -1.0
outer loop
vertex 79.5339660645 26.982793808 0.0
vertex 100.724975586 26.2618293762 0.0
vertex 78.9616546631 25.5628013611 0.0
endloop
endfacet
facet normal 0.0 -0.0 -1.0
outer loop
vertex 105.909317017 20.8749637604 0.0
vertex 107.35018158 20.357465744 0.0
vertex 73.3801651001 20.5886001587 0.0
endloop
endfacet
facet normal 0.0 -0.0 -1.0
outer loop
vertex 73.3801651001 20.5886001587 0.0
vertex 107.35018158 20.357465744 0.0
vertex 71.9039077759 20.1829166412 0.0
endloop
endfacet
facet normal 0.0 0.0 -1.0
outer loop
vertex 79.5339660645 26.982793808 0.0
vertex 100.263046265 27.7214641571 0.0
vertex 100.724975586 26.2618293762 0.0
endloop
endfacet
facet normal 0.0 -0.0 -1.0
outer loop
vertex 79.8828048706 28.4735069275 0.0
vertex 100.263046265 27.7214641571 0.0
vertex 79.5339660645 26.982793808 0.0
endloop
endfacet
facet normal 0.0 -0.0 -1.0
outer loop
vertex 107.35018158 20.357465744 0.0
vertex 108.853164673 20.0659790039 0.0
vertex 71.9039077759 20.1829166412 0.0
endloop
endfacet
facet normal 0.0 -0.0 -1.0
outer loop
vertex 70.383026123 20.0073375702 0.0
vertex 108.853164673 20.0659790039 0.0
vertex 0.0 0.0 0.0
endloop
endfacet
facet normal 0.0 -0.0 -1.0
outer loop
vertex 71.9039077759 20.1829166412 0.0
vertex 108.853164673 20.0659790039 0.0
vertex 70.383026123 20.0073375702 0.0
endloop
endfacet
facet normal 0.0 0.0 -1.0
outer loop
vertex 79.8828048706 28.4735069275 0.0
vertex 100.029342651 29.2345066071 0.0
vertex 100.263046265 27.7214641571 0.0
endloop
endfacet
facet normal 0.0 -0.0 -1.0
outer loop
vertex 80.0 30.0 0.0
vertex 100.029342651 29.2345066071 0.0
vertex 79.8828048706 28.4735069275 0.0
endloop
endfacet
facet normal 0.0 -0.0 -1.0
outer loop
vertex 108.853164673 20.0659790039 0.0
vertex 110.383026123 20.0073375702 0.0
vertex 0.0 0.0 0.0
endloop
endfacet
facet normal 0.0 0.0 -1.0
outer loop
vertex 79.8828048706 31.5264930725 0.0
vertex 100.029342651 30.7654933929 0.0
vertex 80.0 30.0 0.0
endloop
endfacet
facet normal 0.0 0.0 -1.0
outer loop
vertex 80.0 30.0 0.0
vertex 100.029342651 30.7654933929 0.0
vertex 100.029342651 29.2345066071 0.0
endloop
endfacet
facet normal 0.0 0.0 -1.0
outer loop
vertex 79.8828048706 31.5264930725 0.0
vertex 100.263046265 32.2785339355 0.0
vertex 100.029342651 30.7654933929 0.0
endloop
endfacet
facet normal 0.0 0.0 -1.0
outer loop
vertex 79.5339660645 33.0172042847 0.0
vertex 100.263046265 32.2785339355 0.0
vertex 79.8828048706 31.5264930725 0.0
endloop
endfacet
facet normal 0.0 0.0 -1.0
outer loop
vertex 78.9616546631 34.4371986389 0.0
vertex 100.724975586 33.7381706238 0.0
vertex 79.5339660645 33.0172042847 0.0
endloop
endfacet
facet normal 0.0 0.0 -1.0
outer loop
vertex 79.5339660645 33.0172042847 0.0
vertex 100.724975586 33.7381706238 0.0
vertex 100.263046265 32.2785339355 0.0
endloop
endfacet
facet normal 0.0 0.0 -1.0
outer loop
vertex 78.9616546631 34.4371986389 0.0
vertex 101.404304504 35.1101875305 0.0
vertex 100.724975586 33.7381706238 0.0
endloop
endfacet
facet normal 0.0 0.0 -1.0
outer loop
vertex 78.1792907715 35.7531852722 0.0
vertex 101.404304504 35.1101875305 0.0
vertex 78.9616546631 34.4371986389 0.0
endloop
endfacet
facet normal 0.0 0.0 -1.0
outer loop
vertex 77.2052154541 36.9343261719 0.0
vertex 102.285110474 36.3624229431 0.0
vertex 78.1792907715 35.7531852722 0.0
endloop
endfacet
facet normal 0.0 0.0 -1.0
outer loop
vertex 78.1792907715 35.7531852722 0.0
vertex 102.285110474 36.3624229431 0.0
vertex 101.404304504 35.1101875305 0.0
endloop
endfacet
facet normal 0.0 0.0 -1.0
outer loop
vertex 77.2052154541 36.9343261719 0.0
vertex 103.346740723 37.4655303955 0.0
vertex 102.285110474 36.3624229431 0.0
endloop
endfacet
facet normal 0.0 0.0 -1.0
outer loop
vertex 76.0622558594 37.9529304504 0.0
vertex 103.346740723 37.4655303955 0.0
vertex 77.2052154541 36.9343261719 0.0
endloop
endfacet
facet normal 0.0 0.0 -1.0
outer loop
vertex 74.7771987915 38.7851219177 0.0
vertex 104.564323425 38.3936538696 0.0
vertex 76.0622558594 37.9529304504 0.0
endloop
endfacet
facet normal 0.0 0.0 -1.0
outer loop
vertex 76.0622558594 37.9529304504 0.0
vertex 104.564323425 38.3936538696 0.0
vertex 103.346740723 37.4655303955 0.0
endloop
endfacet
facet normal 0.0 0.0 -1.0
outer loop
vertex 74.7771987915 38.7851219177 0.0
vertex 105.909317017 39.1250343323 0.0
vertex 104.564323425 38.3936538696 0.0
endloop
endfacet
facet normal 0.0 0.0 -1.0
outer loop
vertex 73.3801651001 39.4113998413 0.0
vertex 105.909317017 39.1250343323 0.0
vertex 74.7771987915 38.7851219177 0.0
endloop
endfacet
facet normal 0.0 0.0 -1.0
outer loop
vertex 73.3801651001 39.4113998413 0.0
vertex 107.35018158 39.6425361633 0.0
vertex 105.909317017 39.1250343323 0.0
endloop
endfacet
facet normal 0.0 0.0 -1.0
outer loop
vertex 71.9039077759 39.8170814514 0.0
vertex 107.35018158 39.6425361633 0.0
vertex 73.3801651001 39.4113998413 0.0
endloop
endfacet
facet normal 0.0 0.0 -1.0
outer loop
vertex 71.9039077759 39.8170814514 0.0
vertex 108.853164673 39.9340209961 0.0
vertex 107.35018158 39.6425361633 0.0
endloop
endfacet
facet normal 0.0 -0.0 -1.0
outer loop
vertex 111.903907776 20.1829166412 0.0
vertex 200.0 0.0 0.0
vertex 110.383026123 20.0073375702 0.0
endloop
endfacet
facet normal 0.0 -0.0 -1.0
outer loop
vertex 113.3801651 20.5886001587 0.0
vertex 200.0 0.0 0.0
vertex 111.903907776 20.1829166412 0.0
endloop
endfacet
facet normal 0.0 -0.0 -1.0
outer loop
vertex 114.777198792 21.2148780823 0.0
vertex 200.0 0.0 0.0
vertex 113.3801651 20.5886001587 0.0
endloop
endfacet
facet normal 0.0 -0.0 -1.0
outer loop
vertex 116.062255859 22.0470714569 0.0
vertex 200.0 0.0 0.0
vertex 114.777198792 21.2148780823 0.0
endloop
endfacet
facet normal 0.0 -0.0 -1.0
outer loop
vertex 117.205215454 23.0656757355 0.0
vertex 200.0 0.0 0.0
vertex 116.062255859 22.0470714569 0.0
endloop
endfacet
facet normal 0.0 -0.0 -1.0
outer loop
vertex 118.179290771 24.2468128204 0.0
vertex 200.0 0.0 0.0
vertex 117.205215454 23.0656757355 0.0
endloop
endfacet
facet normal 0.0 -0.0 -1.0
outer loop
vertex 118.961654663 25.5628013611 0.0
vertex 200.0 0.0 0.0
vertex 118.179290771 24.2468128204 0.0
endloop
endfacet
facet normal 0.0 -0.0 -1.0
outer loop
vertex 119.533966064 26.982793808 0.0
vertex 200.0 0.0 0.0
vertex 118.961654663 25.5628013611 0.0
endloop
endfacet
facet normal 0.0 -0.0 -1.0
outer loop
vertex 119.882804871 28.4735069275 0.0
vertex 200.0 0.0 0.0
vertex 119.533966064 26.982793808 0.0
endloop
endfacet
facet normal 0.0 -0.0 -1.0
outer loop
vertex 120.0 30.0 0.0
vertex 200.0 0.0 0.0
vertex 119.882804871 28.4735069275 0.0
endloop
endfacet
facet normal 0.0 -0.0 -1.0
outer loop
vertex 110.383026123 20.0073375702 0.0
vertex 200.0 0.0 0.0
vertex 0.0 0.0 0.0
endloop
endfacet
facet normal 0.0 0.0 -1.0
outer loop
vertex 120.0 30.0 0.0
vertex 200.0 60.0 0.0
vertex 200.0 0.0 0.0
endloop
endfacet
facet normal 0.0 0.0 -1.0
outer loop
vertex 119.882804871 31.5264930725 0.0
vertex 200.0 60.0 0.0
vertex 120.0 30.0 0.0
endloop
endfacet
facet normal 0.0 0.0 -1.0
outer loop
vertex 119.533966064 33.0172042847 0.0
vertex 200.0 60.0 0.0
vertex 119.882804871 31.5264930725 0.0
endloop
endfacet
facet normal 0.0 0.0 -1.0
outer loop
vertex 118.961654663 34.4371986389 0.0
vertex 200.0 60.0 0.0
vertex 119.533966064 33.0172042847 0.0
endloop
endfacet
facet normal 0.0 0.0 -1.0
outer loop
vertex 118.179290771 35.7531852722 0.0
vertex 200.0 60.0 0.0
vertex 118.961654663 34.4371986389 0.0
endloop
endfacet
facet normal 0.0 0.0 -1.0
outer loop
vertex 117.205215454 36.9343261719 0.0
vertex 200.0 60.0 0.0
vertex 118.179290771 35.7531852722 0.0
endloop
endfacet
facet normal 0.0 0.0 -1.0
outer loop
vertex 116.062255859 37.9529304504 0.0
vertex 200.0 60.0 0.0
vertex 117.205215454 36.9343261719 0.0
endloop
endfacet
facet normal 0.0 0.0 -1.0
outer loop
vertex 114.777198792 38.7851219177 0.0
vertex 200.0 60.0 0.0
vertex 116.062255859 37.9529304504 0.0
endloop
endfacet
facet normal 0.0 0.0 -1.0
outer loop
vertex 113.3801651 39.4113998413 0.0
vertex 200.0 60.0 0.0
vertex 114.777198792 38.7851219177 0.0
endloop
endfacet
facet normal 0.0 0.0 -1.0
outer loop
vertex 111.903907776 39.8170814514 0.0
vertex 200.0 60.0 0.0
vertex 113.3801651 39.4113998413 0.0
endloop
endfacet
facet normal 0.0 0.0 -1.0
outer loop
vertex 0.0 60.0 0.0
vertex 200.0 60.0 0.0
vertex 70.383026123 39.9926605225 0.0
endloop
endfacet
facet normal 0.0 0.0 -1.0
outer loop
vertex 0.0 60.0 0.0
vertex 70.383026123 39.9926605225 0.0
vertex 68.8531646729 39.9340209961 0.0
endloop
endfacet
facet normal 0.0 0.0 -1.0
outer loop
vertex 70.383026123 39.9926605225 0.0
vertex 200.0 60.0 0.0
vertex 71.9039077759 39.8170814514 0.0
endloop
endfacet
facet normal 0.0 0.0 -1.0
outer loop
vertex 71.9039077759 39.8170814514 0.0
vertex 200.0 60.0 0.0
vertex 108.853164673 39.9340209961 0.0
endloop
endfacet
facet normal 0.0 0.0 -1.0
outer loop
vertex 108.853164673 39.9340209961 0.0
vertex 200.0 60.0 0.0
vertex 110.383026123 39.9926605225 0.0
endloop
endfacet
facet normal 0.0 0.0 -1.0
outer loop
vertex 110.383026123 39.9926605225 0.0
vertex 200.0 60.0 0.0
vertex 111.903907776 39.8170814514 0.0
endloop
endfacet
facet normal 1.0 0.0 0.0
outer loop
vertex 200.0 0.0 0.0
vertex 200.0 60.0 0.0
vertex 200.0 60.0 50.0
endloop
endfacet
facet normal 1.0 -0.0 0.0
outer loop
vertex 200.0 0.0 50.0
vertex 200.0 0.0 0.0
vertex 200.0 60.0 50.0
endloop
endfacet
facet normal -0.997065842152 -0.0765488296747 -0.0
outer loop
vertex 40.0 30.0 50.0
vertex 39.8828048706 31.5264930725 50.0
vertex 40.0 30.0 0.0
endloop
endfacet
facet normal -0.997065842152 -0.0765488296747 0.0
outer loop
vertex 40.0 30.0 0.0
vertex 39.8828048706 31.5264930725 50.0
vertex 39.8828048706 31.5264930725 0.0
endloop
endfacet
facet normal -0.973694980145 -0.227855205536 0.0
outer loop
vertex 39.8828048706 31.5264930725 0.0
vertex 39.5339622498 33.0172042847 50.0
vertex 39.5339622498 33.0172042847 0.0
endloop
endfacet
facet normal -0.973694980145 -0.227855205536 -0.0
outer loop
vertex 39.8828048706 31.5264930725 50.0
vertex 39.5339622498 33.0172042847 50.0
vertex 39.8828048706 31.5264930725 0.0
endloop
endfacet
facet normal -0.92750275135 -0.37381619215 0.0
outer loop
vertex 39.5339622498 33.0172042847 0.0
vertex 38.9616546631 34.4371986389 50.0
vertex 38.9616546631 34.4371986389 0.0
endloop
endfacet
facet normal -0.859569847584 -0.51101821661 0.0
outer loop
vertex 38.9616546631 34.4371986389 0.0
vertex 38.9616546631 34.4371986389 50.0
vertex 38.1792945862 35.7531852722 0.0
endloop
endfacet
facet normal -0.92750275135 -0.37381619215 -0.0
outer loop
vertex 39.5339622498 33.0172042847 50.0
vertex 38.9616546631 34.4371986389 50.0
vertex 39.5339622498 33.0172042847 0.0
endloop
endfacet
facet normal -0.859569847584 -0.51101821661 0.0
outer loop
vertex 38.9616546631 34.4371986389 50.0
vertex 38.1792945862 35.7531852722 50.0
vertex 38.1792945862 35.7531852722 0.0
endloop
endfacet
facet normal -0.77148938179 -0.636242210865 0.0
outer loop
vertex 38.1792945862 35.7531852722 0.0
vertex 38.1792945862 35.7531852722 50.0
vertex 37.2052154541 36.9343261719 0.0
endloop
endfacet
facet normal -0.77148938179 -0.636242210865 0.0
outer loop
vertex 38.1792945862 35.7531852722 50.0
vertex 37.2052154541 36.9343261719 50.0
vertex 37.2052154541 36.9343261719 0.0
endloop
endfacet
facet normal -0.665326654911 -0.746552407742 -0.0
outer loop
vertex 37.2052154541 36.9343261719 50.0
vertex 36.0622558594 37.9529304504 50.0
vertex 37.2052154541 36.9343261719 0.0
endloop
endfacet
facet normal -0.665326654911 -0.746552407742 0.0
outer loop
vertex 37.2052154541 36.9343261719 0.0
vertex 36.0622558594 37.9529304504 50.0
vertex 36.0622558594 37.9529304504 0.0
endloop
endfacet
facet normal -0.54356610775 -0.839366316795 -0.0
outer loop
vertex 36.0622558594 37.9529304504 50.0
vertex 34.7771987915 38.7851219177 50.0
vertex 36.0622558594 37.9529304504 0.0
endloop
endfacet
facet normal -0.54356610775 -0.839366316795 0.0
outer loop
vertex 36.0622558594 37.9529304504 0.0
vertex 34.7771987915 38.7851219177 50.0
vertex 34.7771987915 38.7851219177 0.0
endloop
endfacet
facet normal -0.409068524837 -0.91250371933 -0.0
outer loop
vertex 34.7771987915 38.7851219177 50.0
vertex 33.3801689148 39.4113998413 50.0
vertex 34.7771987915 38.7851219177 0.0
endloop
endfacet
facet normal -0.409068524837 -0.91250371933 0.0
outer loop
vertex 34.7771987915 38.7851219177 0.0
vertex 33.3801689148 39.4113998413 50.0
vertex 33.3801689148 39.4113998413 0.0
endloop
endfacet
facet normal -0.264980912209 -0.964253723621 -0.0
outer loop
vertex 33.3801689148 39.4113998413 50.0
vertex 31.9039115906 39.8170814514 50.0
vertex 33.3801689148 39.4113998413 0.0
endloop
endfacet
facet normal -0.264980912209 -0.964253723621 0.0
outer loop
vertex 33.3801689148 39.4113998413 0.0
vertex 31.9039115906 39.8170814514 50.0
vertex 31.9039115906 39.8170814514 0.0
endloop
endfacet
facet normal -0.114683747292 -0.993402063847 -0.0
outer loop
vertex 31.9039115906 39.8170814514 50.0
vertex 30.3830280304 39.9926605225 50.0
vertex 31.9039115906 39.8170814514 0.0
endloop
endfacet
facet normal -0.114683747292 -0.993402063847 0.0
outer loop
vertex 31.9039115906 39.8170814514 0.0
vertex 30.3830280304 39.9926605225 50.0
vertex 30.3830280304 39.9926605225 0.0
endloop
endfacet
facet normal 0.038301832974 -0.999266266823 0.0
outer loop
vertex 30.3830280304 39.9926605225 50.0
vertex 28.8531665802 39.9340209961 50.0
vertex 30.3830280304 39.9926605225 0.0
endloop
endfacet
facet normal 0.038301832974 -0.999266266823 0.0
outer loop
vertex 30.3830280304 39.9926605225 0.0
vertex 28.8531665802 39.9340209961 50.0
vertex 28.8531665802 39.9340209961 0.0
endloop
endfacet
facet normal 0.190390333533 -0.981708407402 0.0
outer loop
vertex 28.8531665802 39.9340209961 50.0
vertex 27.3501853943 39.6425361633 50.0
vertex 28.8531665802 39.9340209961 0.0
endloop
endfacet
facet normal 0.190390333533 -0.981708407402 0.0
outer loop
vertex 28.8531665802 39.9340209961 0.0
vertex 27.3501853943 39.6425361633 50.0
vertex 27.3501853943 39.6425361633 0.0
endloop
endfacet
facet normal 0.338018447161 -0.94113945961 0.0
outer loop
vertex 27.3501853943 39.6425361633 0.0
vertex 27.3501853943 39.6425361633 50.0
vertex 25.9093132019 39.1250343323 0.0
endloop
endfacet
facet normal 0.338018447161 -0.94113945961 0.0
outer loop
vertex 27.3501853943 39.6425361633 50.0
vertex 25.9093132019 39.1250343323 50.0
vertex 25.9093132019 39.1250343323 0.0
endloop
endfacet
facet normal 0.477719426155 -0.878512382507 0.0
outer loop
vertex 25.9093132019 39.1250343323 50.0
vertex 24.5643253326 38.3936538696 50.0
vertex 25.9093132019 39.1250343323 0.0
endloop
endfacet
facet normal 0.477719426155 -0.878512382507 0.0
outer loop
vertex 25.9093132019 39.1250343323 0.0
vertex 24.5643253326 38.3936538696 50.0
vertex 24.5643253326 38.3936538696 0.0
endloop
endfacet
facet normal 0.606225669384 -0.7952927351 0.0
outer loop
vertex 24.5643253326 38.3936538696 50.0
vertex 23.34674263 37.4655303955 50.0
vertex 24.5643253326 38.3936538696 0.0
endloop
endfacet
facet normal 0.606225669384 -0.7952927351 0.0
outer loop
vertex 24.5643253326 38.3936538696 0.0
vertex 23.34674263 37.4655303955 50.0
vertex 23.34674263 37.4655303955 0.0
endloop
endfacet
facet normal 0.720521688461 -0.693432331085 0.0
outer loop
vertex 23.34674263 37.4655303955 50.0
vertex 22.2851085663 36.3624229431 50.0
vertex 23.34674263 37.4655303955 0.0
endloop
endfacet
facet normal 0.720521688461 -0.693432331085 0.0
outer loop
vertex 23.34674263 37.4655303955 0.0
vertex 22.2851085663 36.3624229431 50.0
vertex 22.2851085663 36.3624229431 0.0
endloop
endfacet
facet normal 0.81792896986 -0.575319230556 0.0
outer loop
vertex 22.2851085663 36.3624229431 50.0
vertex 21.4043045044 35.1101875305 50.0
vertex 22.2851085663 36.3624229431 0.0
endloop
endfacet
facet normal 0.81792896986 -0.575319230556 0.0
outer loop
vertex 22.2851085663 36.3624229431 0.0
vertex 21.4043045044 35.1101875305 50.0
vertex 21.4043045044 35.1101875305 0.0
endloop
endfacet
facet normal 0.896165549755 -0.443719863892 0.0
outer loop
vertex 21.4043045044 35.1101875305 0.0
vertex 21.4043045044 35.1101875305 50.0
vertex 20.7249755859 33.7381706238 0.0
endloop
endfacet
facet normal 0.896165549755 -0.443719863892 0.0
outer loop
vertex 21.4043045044 35.1101875305 50.0
vertex 20.7249755859 33.7381706238 50.0
vertex 20.7249755859 33.7381706238 0.0
endloop
endfacet
facet normal 0.953396558762 -0.301720172167 0.0
outer loop
vertex 20.7249755859 33.7381706238 0.0
vertex 20.2630462646 32.2785339355 50.0
vertex 20.2630462646 32.2785339355 0.0
endloop
endfacet
facet normal 0.988280415535 -0.152649387717 0.0
outer loop
vertex 20.2630462646 32.2785339355 0.0
vertex 20.2630462646 32.2785339355 50.0
vertex 20.0293426514 30.7654933929 0.0
endloop
endfacet
facet normal 0.953396558762 -0.301720172167 0.0
outer loop
vertex 20.7249755859 33.7381706238 50.0
vertex 20.2630462646 32.2785339355 50.0
vertex 20.7249755859 33.7381706238 0.0
endloop
endfacet
facet normal 0.988280415535 -0.152649387717 0.0
outer loop
vertex 20.2630462646 32.2785339355 50.0
vertex 20.0293426514 30.7654933929 50.0
vertex 20.0293426514 30.7654933929 0.0
endloop
endfacet
facet normal 1.0 0.0 0.0
outer loop
vertex 20.0293426514 30.7654933929 0.0
vertex 20.0293426514 29.2345066071 50.0
vertex 20.0293426514 29.2345066071 0.0
endloop
endfacet
facet normal 1.0 0.0 0.0
outer loop
vertex 20.0293426514 30.7654933929 50.0
vertex 20.0293426514 29.2345066071 50.0
vertex 20.0293426514 30.7654933929 0.0
endloop
endfacet
facet normal 0.988280415535 0.152649194002 0.0
outer loop
vertex 20.0293426514 29.2345066071 0.0
vertex 20.2630462646 27.7214641571 50.0
vertex 20.2630462646 27.7214641571 0.0
endloop
endfacet
facet normal 0.988280415535 0.152649194002 0.0
outer loop
vertex 20.0293426514 29.2345066071 50.0
vertex 20.2630462646 27.7214641571 50.0
vertex 20.0293426514 29.2345066071 0.0
endloop
endfacet
facet normal 0.953396439552 0.301720529795 0.0
outer loop
vertex 20.2630462646 27.7214641571 0.0
vertex 20.7249755859 26.2618293762 50.0
vertex 20.7249755859 26.2618293762 0.0
endloop
endfacet
facet normal 0.953396439552 0.301720529795 0.0
outer loop
vertex 20.2630462646 27.7214641571 50.0
vertex 20.7249755859 26.2618293762 50.0
vertex 20.2630462646 27.7214641571 0.0
endloop
endfacet
facet normal 0.896165549755 0.443719863892 0.0
outer loop
vertex 20.7249755859 26.2618293762 0.0
vertex 21.4043045044 24.8898124695 50.0
vertex 21.4043045044 24.8898124695 0.0
endloop
endfacet
facet normal 0.896165549755 0.443719863892 0.0
outer loop
vertex 20.7249755859 26.2618293762 50.0
vertex 21.4043045044 24.8898124695 50.0
vertex 20.7249755859 26.2618293762 0.0
endloop
endfacet
facet normal 0.817929387093 0.575318694115 0.0
outer loop
vertex 21.4043045044 24.8898124695 0.0
vertex 22.2851085663 23.6375751495 50.0
vertex 22.2851085663 23.6375751495 0.0
endloop
endfacet
facet normal 0.817929387093 0.575318694115 0.0
outer loop
vertex 21.4043045044 24.8898124695 50.0
vertex 22.2851085663 23.6375751495 50.0
vertex 21.4043045044 24.8898124695 0.0
endloop
endfacet
facet normal 0.720521688461 0.693432331085 0.0
outer loop
vertex 22.2851085663 23.6375751495 0.0
vertex 23.34674263 22.5344676971 50.0
vertex 23.34674263 22.5344676971 0.0
endloop
endfacet
facet normal 0.720521688461 0.693432331085 0.0
outer loop
vertex 22.2851085663 23.6375751495 50.0
vertex 23.34674263 22.5344676971 50.0
vertex 22.2851085663 23.6375751495 0.0
endloop
endfacet
facet normal 0.606224834919 0.795293331146 0.0
outer loop
vertex 23.34674263 22.5344676971 0.0
vertex 24.5643253326 21.6063461304 50.0
vertex 24.5643253326 21.6063461304 0.0
endloop
endfacet
facet normal 0.606224834919 0.795293331146 0.0
outer loop
vertex 23.34674263 22.5344676971 50.0
vertex 24.5643253326 21.6063461304 50.0
vertex 23.34674263 22.5344676971 0.0
endloop
endfacet
facet normal 0.477720439434 0.878511965275 0.0
outer loop
vertex 24.5643253326 21.6063461304 0.0
vertex 25.9093132019 20.8749637604 50.0
vertex 25.9093132019 20.8749637604 0.0
endloop
endfacet
facet normal 0.477720439434 0.878511965275 0.0
outer loop
vertex 24.5643253326 21.6063461304 50.0
vertex 25.9093132019 20.8749637604 50.0
vertex 24.5643253326 21.6063461304 0.0
endloop
endfacet
facet normal 0.338016271591 0.941140294075 0.0
outer loop
vertex 25.9093132019 20.8749637604 50.0
vertex 27.3501853943 20.357465744 50.0
vertex 25.9093132019 20.8749637604 0.0
endloop
endfacet
facet normal 0.338016271591 0.941140294075 0.0
outer loop
vertex 25.9093132019 20.8749637604 0.0
vertex 27.3501853943 20.357465744 50.0
vertex 27.3501853943 20.357465744 0.0
endloop
endfacet
facet normal 0.190391540527 0.981708228588 0.0
outer loop
vertex 27.3501853943 20.357465744 50.0
vertex 28.8531665802 20.0659790039 50.0
vertex 27.3501853943 20.357465744 0.0
endloop
endfacet
facet normal 0.190391540527 0.981708228588 0.0
outer loop
vertex 27.3501853943 20.357465744 0.0
vertex 28.8531665802 20.0659790039 50.0
vertex 28.8531665802 20.0659790039 0.0
endloop
endfacet
facet normal 0.0383030772209 0.999266147614 0.0
outer loop
vertex 28.8531665802 20.0659790039 50.0
vertex 30.3830280304 20.0073375702 50.0
vertex 28.8531665802 20.0659790039 0.0
endloop
endfacet
facet normal 0.0383030772209 0.999266147614 0.0
outer loop
vertex 28.8531665802 20.0659790039 0.0
vertex 30.3830280304 20.0073375702 50.0
vertex 30.3830280304 20.0073375702 0.0
endloop
endfacet
facet normal -0.114683747292 0.993402063847 0.0
outer loop
vertex 30.3830280304 20.0073375702 50.0
vertex 31.9039115906 20.1829166412 50.0
vertex 30.3830280304 20.0073375702 0.0
endloop
endfacet
facet normal -0.114683747292 0.993402063847 0.0
outer loop
vertex 30.3830280304 20.0073375702 0.0
vertex 31.9039115906 20.1829166412 50.0
vertex 31.9039115906 20.1829166412 0.0
endloop
endfacet
facet normal -0.264982044697 0.964253306389 0.0
outer loop
vertex 31.9039115906 20.1829166412 50.0
vertex 33.3801689148 20.5886001587 50.0
vertex 31.9039115906 20.1829166412 0.0
endloop
endfacet
facet normal -0.264982044697 0.964253306389 0.0
outer loop
vertex 31.9039115906 20.1829166412 0.0
vertex 33.3801689148 20.5886001587 50.0
vertex 33.3801689148 20.5886001587 0.0
endloop
endfacet
facet normal -0.409068524837 0.91250371933 0.0
outer loop
vertex 33.3801689148 20.5886001587 50.0
vertex 34.7771987915 21.2148780823 50.0
vertex 33.3801689148 20.5886001587 0.0
endloop
endfacet
facet normal -0.409068524837 0.91250371933 0.0
outer loop
vertex 33.3801689148 20.5886001587 0.0
vertex 34.7771987915 21.2148780823 50.0
vertex 34.7771987915 21.2148780823 0.0
endloop
endfacet
facet normal -0.54356700182 0.839365720749 0.0
outer loop
vertex 34.7771987915 21.2148780823 50.0
vertex 36.0622558594 22.0470714569 50.0
vertex 34.7771987915 21.2148780823 0.0
endloop
endfacet
facet normal -0.54356700182 0.839365720749 0.0
outer loop
vertex 34.7771987915 21.2148780823 0.0
vertex 36.0622558594 22.0470714569 50.0
vertex 36.0622558594 22.0470714569 0.0
endloop
endfacet
facet normal -0.665326654911 0.746552407742 0.0
outer loop
vertex 36.0622558594 22.0470714569 50.0
vertex 37.2052154541 23.0656757355 50.0
vertex 36.0622558594 22.0470714569 0.0
endloop
endfacet
facet normal -0.665326654911 0.746552407742 0.0
outer loop
vertex 36.0622558594 22.0470714569 0.0
vertex 37.2052154541 23.0656757355 50.0
vertex 37.2052154541 23.0656757355 0.0
endloop
endfacet
facet normal -0.771488368511 0.636243462563 0.0
outer loop
vertex 37.2052154541 23.0656757355 50.0
vertex 38.1792945862 24.2468128204 50.0
vertex 37.2052154541 23.0656757355 0.0
endloop
endfacet
facet normal -0.771488368511 0.636243462563 0.0
outer loop
vertex 37.2052154541 23.0656757355 0.0
vertex 38.1792945862 24.2468128204 50.0
vertex 38.1792945862 24.2468128204 0.0
endloop
endfacet
facet normal -0.859570145607 0.511017680168 0.0
outer loop
vertex 38.1792945862 24.2468128204 50.0
vertex 38.9616546631 25.5628013611 50.0
vertex 38.1792945862 24.2468128204 0.0
endloop
endfacet
facet normal -0.859570145607 0.511017680168 0.0
outer loop
vertex 38.1792945862 24.2468128204 0.0
vertex 38.9616546631 25.5628013611 50.0
vertex 38.9616546631 25.5628013611 0.0
endloop
endfacet
facet normal -0.927502572536 0.373816639185 0.0
outer loop
vertex 38.9616546631 25.5628013611 50.0
vertex 39.5339622498 26.982793808 50.0
vertex 38.9616546631 25.5628013611 0.0
endloop
endfacet
facet normal -0.927502572536 0.373816639185 0.0
outer loop
vertex 38.9616546631 25.5628013611 0.0
vertex 39.5339622498 26.982793808 50.0
vertex 39.5339622498 26.982793808 0.0
endloop
endfacet
facet normal -0.973695158958 0.227854937315 0.0
outer loop
vertex 39.5339622498 26.982793808 50.0
vertex 39.8828048706 28.4735069275 50.0
vertex 39.5339622498 26.982793808 0.0
endloop
endfacet
facet normal -0.973695158958 0.227854937315 0.0
outer loop
vertex 39.5339622498 26.982793808 0.0
vertex 39.8828048706 28.4735069275 50.0
vertex 39.8828048706 28.4735069275 0.0
endloop
endfacet
facet normal -0.997065842152 0.0765488296747 0.0
outer loop
vertex 39.8828048706 28.4735069275 50.0
vertex 40.0 30.0 50.0
vertex 39.8828048706 28.4735069275 0.0
endloop
endfacet
facet normal -0.997065842152 0.0765488296747 0.0
outer loop
vertex 39.8828048706 28.4735069275 0.0
vertex 40.0 30.0 50.0
vertex 40.0 30.0 0.0
endloop
endfacet
facet normal -0.997065842152 -0.0765488296747 -0.0
outer loop
vertex 80.0 30.0 50.0
vertex 79.8828048706 31.5264930725 50.0
vertex 80.0 30.0 0.0
endloop
endfacet
facet normal -0.997065842152 -0.0765488296747 0.0
outer loop
vertex 80.0 30.0 0.0
vertex 79.8828048706 31.5264930725 50.0
vertex 79.8828048706 31.5264930725 0.0
endloop
endfacet
facet normal -0.973695576191 -0.227852851152 0.0
outer loop
vertex 79.8828048706 31.5264930725 0.0
vertex 79.5339660645 33.0172042847 50.0
vertex 79.5339660645 33.0172042847 0.0
endloop
endfacet
facet normal -0.973695576191 -0.227852851152 -0.0
outer loop
vertex 79.8828048706 31.5264930725 50.0
vertex 79.5339660645 33.0172042847 50.0
vertex 79.8828048706 31.5264930725 0.0
endloop
endfacet
facet normal -0.927501916885 -0.373818337917 0.0
outer loop
vertex 79.5339660645 33.0172042847 0.0
vertex 78.9616546631 34.4371986389 50.0
vertex 78.9616546631 34.4371986389 0.0
endloop
endfacet
facet normal -0.8595687747 -0.511020064354 0.0
outer loop
vertex 78.9616546631 34.4371986389 0.0
vertex 78.9616546631 34.4371986389 50.0
vertex 78.1792907715 35.7531852722 0.0
endloop
endfacet
facet normal -0.927501916885 -0.373818337917 -0.0
outer loop
vertex 79.5339660645 33.0172042847 50.0
vertex 78.9616546631 34.4371986389 50.0
vertex 79.5339660645 33.0172042847 0.0
endloop
endfacet
facet normal -0.8595687747 -0.511020064354 0.0
outer loop
vertex 78.9616546631 34.4371986389 50.0
vertex 78.1792907715 35.7531852722 50.0
vertex 78.1792907715 35.7531852722 0.0
endloop
endfacet
facet normal -0.771490573883 -0.636240720749 0.0
outer loop
vertex 78.1792907715 35.7531852722 0.0
vertex 78.1792907715 35.7531852722 50.0
vertex 77.2052154541 36.9343261719 0.0
endloop
endfacet
facet normal -0.771490573883 -0.636240720749 0.0
outer loop
vertex 78.1792907715 35.7531852722 50.0
vertex 77.2052154541 36.9343261719 50.0
vertex 77.2052154541 36.9343261719 0.0
endloop
endfacet
facet normal -0.665326654911 -0.746552407742 -0.0
outer loop
vertex 77.2052154541 36.9343261719 50.0
vertex 76.0622558594 37.9529304504 50.0
vertex 77.2052154541 36.9343261719 0.0
endloop
endfacet
facet normal -0.665326654911 -0.746552407742 0.0
outer loop
vertex 77.2052154541 36.9343261719 0.0
vertex 76.0622558594 37.9529304504 50.0
vertex 76.0622558594 37.9529304504 0.0
endloop
endfacet
facet normal -0.54356610775 -0.839366316795 -0.0
outer loop
vertex 76.0622558594 37.9529304504 50.0
vertex 74.7771987915 38.7851219177 50.0
vertex 76.0622558594 37.9529304504 0.0
endloop
endfacet
facet normal -0.54356610775 -0.839366316795 0.0
outer loop
vertex 76.0622558594 37.9529304504 0.0
vertex 74.7771987915 38.7851219177 50.0
vertex 74.7771987915 38.7851219177 0.0
endloop
endfacet
facet normal -0.409067571163 -0.912504136562 -0.0
outer loop
vertex 74.7771987915 38.7851219177 50.0
vertex 73.3801651001 39.4113998413 50.0
vertex 74.7771987915 38.7851219177 0.0
endloop
endfacet
facet normal -0.409067571163 -0.912504136562 0.0
outer loop
vertex 74.7771987915 38.7851219177 0.0
vertex 73.3801651001 39.4113998413 50.0
vertex 73.3801651001 39.4113998413 0.0
endloop
endfacet
facet normal -0.264980912209 -0.964253723621 -0.0
outer loop
vertex 73.3801651001 39.4113998413 50.0
vertex 71.9039077759 39.8170814514 50.0
vertex 73.3801651001 39.4113998413 0.0
endloop
endfacet
facet normal -0.264980912209 -0.964253723621 0.0
outer loop
vertex 73.3801651001 39.4113998413 0.0
vertex 71.9039077759 39.8170814514 50.0
vertex 71.9039077759 39.8170814514 0.0
endloop
endfacet
facet normal -0.114683881402 -0.993402063847 -0.0
outer loop
vertex 71.9039077759 39.8170814514 50.0
vertex 70.383026123 39.9926605225 50.0
vertex 71.9039077759 39.8170814514 0.0
endloop
endfacet
facet normal -0.114683881402 -0.993402063847 0.0
outer loop
vertex 71.9039077759 39.8170814514 0.0
vertex 70.383026123 39.9926605225 50.0
vertex 70.383026123 39.9926605225 0.0
endloop
endfacet
facet normal 0.038301832974 -0.999266266823 0.0
outer loop
vertex 70.383026123 39.9926605225 50.0
vertex 68.8531646729 39.9340209961 50.0
vertex 70.383026123 39.9926605225 0.0
endloop
endfacet
facet normal 0.038301832974 -0.999266266823 0.0
outer loop
vertex 70.383026123 39.9926605225 0.0
vertex 68.8531646729 39.9340209961 50.0
vertex 68.8531646729 39.9340209961 0.0
endloop
endfacet
facet normal 0.190390124917 -0.981708526611 0.0
outer loop
vertex 68.8531646729 39.9340209961 50.0
vertex 67.3501815796 39.6425361633 50.0
vertex 68.8531646729 39.9340209961 0.0
endloop
endfacet
facet normal 0.190390124917 -0.981708526611 0.0
outer loop
vertex 68.8531646729 39.9340209961 0.0
vertex 67.3501815796 39.6425361633 50.0
vertex 67.3501815796 39.6425361633 0.0
endloop
endfacet
facet normal 0.338020026684 -0.941138863564 0.0
outer loop
vertex 67.3501815796 39.6425361633 0.0
vertex 67.3501815796 39.6425361633 50.0
vertex 65.9093170166 39.1250343323 0.0
endloop
endfacet
facet normal 0.338020026684 -0.941138863564 0.0
outer loop
vertex 67.3501815796 39.6425361633 50.0
vertex 65.9093170166 39.1250343323 50.0
vertex 65.9093170166 39.1250343323 0.0
endloop
endfacet
facet normal 0.477717876434 -0.878513276577 0.0
outer loop
vertex 65.9093170166 39.1250343323 50.0
vertex 64.5643234253 38.3936538696 50.0
vertex 65.9093170166 39.1250343323 0.0
endloop
endfacet
facet normal 0.477717876434 -0.878513276577 0.0
outer loop
vertex 65.9093170166 39.1250343323 0.0
vertex 64.5643234253 38.3936538696 50.0
vertex 64.5643234253 38.3936538696 0.0
endloop
endfacet
facet normal 0.606226801872 -0.795291781425 0.0
outer loop
vertex 64.5643234253 38.3936538696 50.0
vertex 63.3467445374 37.4655303955 50.0
vertex 64.5643234253 38.3936538696 0.0
endloop
endfacet
facet normal 0.606226801872 -0.795291781425 0.0
outer loop
vertex 64.5643234253 38.3936538696 0.0
vertex 63.3467445374 37.4655303955 50.0
vertex 63.3467445374 37.4655303955 0.0
endloop
endfacet
facet normal 0.720520496368 -0.693433642387 0.0
outer loop
vertex 63.3467445374 37.4655303955 50.0
vertex 62.2851066589 36.3624229431 50.0
vertex 63.3467445374 37.4655303955 0.0
endloop
endfacet
facet normal 0.720520496368 -0.693433642387 0.0
outer loop
vertex 63.3467445374 37.4655303955 0.0
vertex 62.2851066589 36.3624229431 50.0
vertex 62.2851066589 36.3624229431 0.0
endloop
endfacet
facet normal 0.817929506302 -0.575318396091 0.0
outer loop
vertex 62.2851066589 36.3624229431 50.0
vertex 61.4043045044 35.1101875305 50.0
vertex 62.2851066589 36.3624229431 0.0
endloop
endfacet
facet normal 0.817929506302 -0.575318396091 0.0
outer loop
vertex 62.2851066589 36.3624229431 0.0
vertex 61.4043045044 35.1101875305 50.0
vertex 61.4043045044 35.1101875305 0.0
endloop
endfacet
facet normal 0.896165549755 -0.443719863892 0.0
outer loop
vertex 61.4043045044 35.1101875305 0.0
vertex 61.4043045044 35.1101875305 50.0
vertex 60.7249755859 33.7381706238 0.0
endloop
endfacet
facet normal 0.896165549755 -0.443719863892 0.0
outer loop
vertex 61.4043045044 35.1101875305 50.0
vertex 60.7249755859 33.7381706238 50.0
vertex 60.7249755859 33.7381706238 0.0
endloop
endfacet
facet normal 0.953396558762 -0.301720172167 0.0
outer loop
vertex 60.7249755859 33.7381706238 0.0
vertex 60.2630462646 32.2785339355 50.0
vertex 60.2630462646 32.2785339355 0.0
endloop
endfacet
facet normal 0.988280415535 -0.152649387717 0.0
outer loop
vertex 60.2630462646 32.2785339355 0.0
vertex 60.2630462646 32.2785339355 50.0
vertex 60.0293426514 30.7654933929 0.0
endloop
endfacet
facet normal 0.953396558762 -0.301720172167 0.0
outer loop
vertex 60.7249755859 33.7381706238 50.0
vertex 60.2630462646 32.2785339355 50.0
vertex 60.7249755859 33.7381706238 0.0
endloop
endfacet
facet normal 0.988280415535 -0.152649387717 0.0
outer loop
vertex 60.2630462646 32.2785339355 50.0
vertex 60.0293426514 30.7654933929 50.0
vertex 60.0293426514 30.7654933929 0.0
endloop
endfacet
facet normal 1.0 0.0 0.0
outer loop
vertex 60.0293426514 30.7654933929 0.0
vertex 60.0293426514 29.2345066071 50.0
vertex 60.0293426514 29.2345066071 0.0
endloop
endfacet
facet normal 1.0 0.0 0.0
outer loop
vertex 60.0293426514 30.7654933929 50.0
vertex 60.0293426514 29.2345066071 50.0
vertex 60.0293426514 30.7654933929 0.0
endloop
endfacet
facet normal 0.988280415535 0.152649194002 0.0
outer loop
vertex 60.0293426514 29.2345066071 0.0
vertex 60.2630462646 27.7214641571 50.0
vertex 60.2630462646 27.7214641571 0.0
endloop
endfacet
facet normal 0.988280415535 0.152649194002 0.0
outer loop
vertex 60.0293426514 29.2345066071 50.0
vertex 60.2630462646 27.7214641571 50.0
vertex 60.0293426514 29.2345066071 0.0
endloop
endfacet
facet normal 0.953396439552 0.301720529795 0.0
outer loop
vertex 60.2630462646 27.7214641571 0.0
vertex 60.7249755859 26.2618293762 50.0
vertex 60.7249755859 26.2618293762 0.0
endloop
endfacet
facet normal 0.953396439552 0.301720529795 0.0
outer loop
vertex 60.2630462646 27.7214641571 50.0
vertex 60.7249755859 26.2618293762 50.0
vertex 60.2630462646 27.7214641571 0.0
endloop
endfacet
facet normal 0.896165549755 0.443719863892 0.0
outer loop
vertex 60.7249755859 26.2618293762 0.0
vertex 61.4043045044 24.8898124695 50.0
vertex 61.4043045044 24.8898124695 0.0
endloop
endfacet
facet normal 0.896165549755 0.443719863892 0.0
outer loop
vertex 60.7249755859 26.2618293762 50.0
vertex 61.4043045044 24.8898124695 50.0
vertex 60.7249755859 26.2618293762 0.0
endloop
endfacet
facet normal 0.817929923534 0.57531785965 0.0
outer loop
vertex 61.4043045044 24.8898124695 0.0
vertex 62.2851066589 23.6375751495 50.0
vertex 62.2851066589 23.6375751495 0.0
endloop
endfacet
facet normal 0.817929923534 0.57531785965 0.0
outer loop
vertex 61.4043045044 24.8898124695 50.0
vertex 62.2851066589 23.6375751495 50.0
vertex 61.4043045044 24.8898124695 0.0
endloop
endfacet
facet normal 0.720520496368 0.693433642387 0.0
outer loop
vertex 62.2851066589 23.6375751495 0.0
vertex 63.3467445374 22.5344676971 50.0
vertex 63.3467445374 22.5344676971 0.0
endloop
endfacet
facet normal 0.720520496368 0.693433642387 0.0
outer loop
vertex 62.2851066589 23.6375751495 50.0
vertex 63.3467445374 22.5344676971 50.0
vertex 62.2851066589 23.6375751495 0.0
endloop
endfacet
facet normal 0.606226027012 0.795292377472 0.0
outer loop
vertex 63.3467445374 22.5344676971 0.0
vertex 64.5643234253 21.6063461304 50.0
vertex 64.5643234253 21.6063461304 0.0
endloop
endfacet
facet normal 0.606226027012 0.795292377472 0.0
outer loop
vertex 63.3467445374 22.5344676971 50.0
vertex 64.5643234253 21.6063461304 50.0
vertex 63.3467445374 22.5344676971 0.0
endloop
endfacet
facet normal 0.477718830109 0.87851279974 0.0
outer loop
vertex 64.5643234253 21.6063461304 0.0
vertex 65.9093170166 20.8749637604 50.0
vertex 65.9093170166 20.8749637604 0.0
endloop
endfacet
facet normal 0.477718830109 0.87851279974 0.0
outer loop
vertex 64.5643234253 21.6063461304 50.0
vertex 65.9093170166 20.8749637604 50.0
vertex 64.5643234253 21.6063461304 0.0
endloop
endfacet
facet normal 0.338017851114 0.941139698029 0.0
outer loop
vertex 65.9093170166 20.8749637604 50.0
vertex 67.3501815796 20.357465744 50.0
vertex 65.9093170166 20.8749637604 0.0
endloop
endfacet
facet normal 0.338017851114 0.941139698029 0.0
outer loop
vertex 65.9093170166 20.8749637604 0.0
vertex 67.3501815796 20.357465744 50.0
vertex 67.3501815796 20.357465744 0.0
endloop
endfacet
facet normal 0.19039131701 0.981708228588 0.0
outer loop
vertex 67.3501815796 20.357465744 50.0
vertex 68.8531646729 20.0659790039 50.0
vertex 67.3501815796 20.357465744 0.0
endloop
endfacet
facet normal 0.19039131701 0.981708228588 0.0
outer loop
vertex 67.3501815796 20.357465744 0.0
vertex 68.8531646729 20.0659790039 50.0
vertex 68.8531646729 20.0659790039 0.0
endloop
endfacet
facet normal 0.0383030772209 0.999266147614 0.0
outer loop
vertex 68.8531646729 20.0659790039 50.0
vertex 70.383026123 20.0073375702 50.0
vertex 68.8531646729 20.0659790039 0.0
endloop
endfacet
facet normal 0.0383030772209 0.999266147614 0.0
outer loop
vertex 68.8531646729 20.0659790039 0.0
vertex 70.383026123 20.0073375702 50.0
vertex 70.383026123 20.0073375702 0.0
endloop
endfacet
facet normal -0.114683881402 0.993402063847 0.0
outer loop
vertex 70.383026123 20.0073375702 50.0
vertex 71.9039077759 20.1829166412 50.0
vertex 70.383026123 20.0073375702 0.0
endloop
endfacet
facet normal -0.114683881402 0.993402063847 0.0
outer loop
vertex 70.383026123 20.0073375702 0.0
vertex 71.9039077759 20.1829166412 50.0
vertex 71.9039077759 20.1829166412 0.0
endloop
endfacet
facet normal -0.264982044697 0.964253306389 0.0
outer loop
vertex 71.9039077759 20.1829166412 50.0
vertex 73.3801651001 20.5886001587 50.0
vertex 71.9039077759 20.1829166412 0.0
endloop
endfacet
facet normal -0.264982044697 0.964253306389 0.0
outer loop
vertex 71.9039077759 20.1829166412 0.0
vertex 73.3801651001 20.5886001587 50.0
vertex 73.3801651001 20.5886001587 0.0
endloop
endfacet
facet normal -0.409067571163 0.912504136562 0.0
outer loop
vertex 73.3801651001 20.5886001587 50.0
vertex 74.7771987915 21.2148780823 50.0
vertex 73.3801651001 20.5886001587 0.0
endloop
endfacet
facet normal -0.409067571163 0.912504136562 0.0
outer loop
vertex 73.3801651001 20.5886001587 0.0
vertex 74.7771987915 21.2148780823 50.0
vertex 74.7771987915 21.2148780823 0.0
endloop
endfacet
facet normal -0.54356700182 0.839365720749 0.0
outer loop
vertex 74.7771987915 21.2148780823 50.0
vertex 76.0622558594 22.0470714569 50.0
vertex 74.7771987915 21.2148780823 0.0
endloop
endfacet
facet normal -0.54356700182 0.839365720749 0.0
outer loop
vertex 74.7771987915 21.2148780823 0.0
vertex 76.0622558594 22.0470714569 50.0
vertex 76.0622558594 22.0470714569 0.0
endloop
endfacet
facet normal -0.665326654911 0.746552407742 0.0
outer loop
vertex 76.0622558594 22.0470714569 50.0
vertex 77.2052154541 23.0656757355 50.0
vertex 76.0622558594 22.0470714569 0.0
endloop
endfacet
facet normal -0.665326654911 0.746552407742 0.0
outer loop
vertex 76.0622558594 22.0470714569 0.0
vertex 77.2052154541 23.0656757355 50.0
vertex 77.2052154541 23.0656757355 0.0
endloop
endfacet
facet normal -0.771489620209 0.636241972446 0.0
outer loop
vertex 77.2052154541 23.0656757355 50.0
vertex 78.1792907715 24.2468128204 50.0
vertex 77.2052154541 23.0656757355 0.0
endloop
endfacet
facet normal -0.771489620209 0.636241972446 0.0
outer loop
vertex 77.2052154541 23.0656757355 0.0
vertex 78.1792907715 24.2468128204 50.0
vertex 78.1792907715 24.2468128204 0.0
endloop
endfacet
facet normal -0.859569132328 0.511019587517 0.0
outer loop
vertex 78.1792907715 24.2468128204 50.0
vertex 78.9616546631 25.5628013611 50.0
vertex 78.1792907715 24.2468128204 0.0
endloop
endfacet
facet normal -0.859569132328 0.511019587517 0.0
outer loop
vertex 78.1792907715 24.2468128204 0.0
vertex 78.9616546631 25.5628013611 50.0
vertex 78.9616546631 25.5628013611 0.0
endloop
endfacet
facet normal -0.927501738071 0.373818784952 0.0
outer loop
vertex 78.9616546631 25.5628013611 50.0
vertex 79.5339660645 26.982793808 50.0
vertex 78.9616546631 25.5628013611 0.0
endloop
endfacet
facet normal -0.927501738071 0.373818784952 0.0
outer loop
vertex 78.9616546631 25.5628013611 0.0
vertex 79.5339660645 26.982793808 50.0
vertex 79.5339660645 26.982793808 0.0
endloop
endfacet
facet normal -0.973695635796 0.227852553129 0.0
outer loop
vertex 79.5339660645 26.982793808 50.0
vertex 79.8828048706 28.4735069275 50.0
vertex 79.5339660645 26.982793808 0.0
endloop
endfacet
facet normal -0.973695635796 0.227852553129 0.0
outer loop
vertex 79.5339660645 26.982793808 0.0
vertex 79.8828048706 28.4735069275 50.0
vertex 79.8828048706 28.4735069275 0.0
endloop
endfacet
facet normal -0.997065842152 0.0765488296747 0.0
outer loop
vertex 79.8828048706 28.4735069275 50.0
vertex 80.0 30.0 50.0
vertex 79.8828048706 28.4735069275 0.0
endloop
endfacet
facet normal -0.997065842152 0.0765488296747 0.0
outer loop
vertex 79.8828048706 28.4735069275 0.0
vertex 80.0 30.0 50.0
vertex 80.0 30.0 0.0
endloop
endfacet
facet normal -0.997065842152 -0.0765488296747 -0.0
outer loop
vertex 120.0 30.0 50.0
vertex 119.882804871 31.5264930725 50.0
vertex 120.0 30.0 0.0
endloop
endfacet
facet normal -0.997065842152 -0.0765488296747 0.0
outer loop
vertex 120.0 30.0 0.0
vertex 119.882804871 31.5264930725 50.0
vertex 119.882804871 31.5264930725 0.0
endloop
endfacet
facet normal -0.973695576191 -0.227852851152 0.0
outer loop
vertex 119.882804871 31.5264930725 0.0
vertex 119.533966064 33.0172042847 50.0
vertex 119.533966064 33.0172042847 0.0
endloop
endfacet
facet normal -0.973695576191 -0.227852851152 -0.0
outer loop
vertex 119.882804871 31.5264930725 50.0
vertex 119.533966064 33.0172042847 50.0
vertex 119.882804871 31.5264930725 0.0
endloop
endfacet
facet normal -0.927501916885 -0.373818337917 0.0
outer loop
vertex 119.533966064 33.0172042847 0.0
vertex 118.961654663 34.4371986389 50.0
vertex 118.961654663 34.4371986389 0.0
endloop
endfacet
facet normal -0.8595687747 -0.511020064354 0.0
outer loop
vertex 118.961654663 34.4371986389 0.0
vertex 118.961654663 34.4371986389 50.0
vertex 118.179290771 35.7531852722 0.0
endloop
endfacet
facet normal -0.927501916885 -0.373818337917 -0.0
outer loop
vertex 119.533966064 33.0172042847 50.0
vertex 118.961654663 34.4371986389 50.0
vertex 119.533966064 33.0172042847 0.0
endloop
endfacet
facet normal -0.8595687747 -0.511020064354 0.0
outer loop
vertex 118.961654663 34.4371986389 50.0
vertex 118.179290771 35.7531852722 50.0
vertex 118.179290771 35.7531852722 0.0
endloop
endfacet
facet normal -0.771490573883 -0.636240720749 0.0
outer loop
vertex 118.179290771 35.7531852722 0.0
vertex 118.179290771 35.7531852722 50.0
vertex 117.205215454 36.9343261719 0.0
endloop
endfacet
facet normal -0.771490573883 -0.636240720749 0.0
outer loop
vertex 118.179290771 35.7531852722 50.0
vertex 117.205215454 36.9343261719 50.0
vertex 117.205215454 36.9343261719 0.0
endloop
endfacet
facet normal -0.665326654911 -0.746552407742 -0.0
outer loop
vertex 117.205215454 36.9343261719 50.0
vertex 116.062255859 37.9529304504 50.0
vertex 117.205215454 36.9343261719 0.0
endloop
endfacet
facet normal -0.665326654911 -0.746552407742 0.0
outer loop
vertex 117.205215454 36.9343261719 0.0
vertex 116.062255859 37.9529304504 50.0
vertex 116.062255859 37.9529304504 0.0
endloop
endfacet
facet normal -0.54356610775 -0.839366316795 -0.0
outer loop
vertex 116.062255859 37.9529304504 50.0
vertex 114.777198792 38.7851219177 50.0
vertex 116.062255859 37.9529304504 0.0
endloop
endfacet
facet normal -0.54356610775 -0.839366316795 0.0
outer loop
vertex 116.062255859 37.9529304504 0.0
vertex 114.777198792 38.7851219177 50.0
vertex 114.777198792 38.7851219177 0.0
endloop
endfacet
facet normal -0.409067571163 -0.912504136562 -0.0
outer loop
vertex 114.777198792 38.7851219177 50.0
vertex 113.3801651 39.4113998413 50.0
vertex 114.777198792 38.7851219177 0.0
endloop
endfacet
facet normal -0.409067571163 -0.912504136562 0.0
outer loop
vertex 114.777198792 38.7851219177 0.0
vertex 113.3801651 39.4113998413 50.0
vertex 113.3801651 39.4113998413 0.0
endloop
endfacet
facet normal -0.264980912209 -0.964253723621 -0.0
outer loop
vertex 113.3801651 39.4113998413 50.0
vertex 111.903907776 39.8170814514 50.0
vertex 113.3801651 39.4113998413 0.0
endloop
endfacet
facet normal -0.264980912209 -0.964253723621 0.0
outer loop
vertex 113.3801651 39.4113998413 0.0
vertex 111.903907776 39.8170814514 50.0
vertex 111.903907776 39.8170814514 0.0
endloop
endfacet
facet normal -0.114683881402 -0.993402063847 -0.0
outer loop
vertex 111.903907776 39.8170814514 50.0
vertex 110.383026123 39.9926605225 50.0
vertex 111.903907776 39.8170814514 0.0
endloop
endfacet
facet normal -0.114683881402 -0.993402063847 0.0
outer loop
vertex 111.903907776 39.8170814514 0.0
vertex 110.383026123 39.9926605225 50.0
vertex 110.383026123 39.9926605225 0.0
endloop
endfacet
facet normal 0.038301832974 -0.999266266823 0.0
outer loop
vertex 110.383026123 39.9926605225 50.0
vertex 108.853164673 39.9340209961 50.0
vertex 110.383026123 39.9926605225 0.0
endloop
endfacet
facet normal 0.038301832974 -0.999266266823 0.0
outer loop
vertex 110.383026123 39.9926605225 0.0
vertex 108.853164673 39.9340209961 50.0
vertex 108.853164673 39.9340209961 0.0
endloop
endfacet
facet normal 0.190390124917 -0.981708526611 0.0
outer loop
vertex 108.853164673 39.9340209961 50.0
vertex 107.35018158 39.6425361633 50.0
vertex 108.853164673 39.9340209961 0.0
endloop
endfacet
facet normal 0.190390124917 -0.981708526611 0.0
outer loop
vertex 108.853164673 39.9340209961 0.0
vertex 107.35018158 39.6425361633 50.0
vertex 107.35018158 39.6425361633 0.0
endloop
endfacet
facet normal 0.338020026684 -0.941138863564 0.0
outer loop
vertex 107.35018158 39.6425361633 0.0
vertex 107.35018158 39.6425361633 50.0
vertex 105.909317017 39.1250343323 0.0
endloop
endfacet
facet normal 0.338020026684 -0.941138863564 0.0
outer loop
vertex 107.35018158 39.6425361633 50.0
vertex 105.909317017 39.1250343323 50.0
vertex 105.909317017 39.1250343323 0.0
endloop
endfacet
facet normal 0.477717876434 -0.878513276577 0.0
outer loop
vertex 105.909317017 39.1250343323 50.0
vertex 104.564323425 38.3936538696 50.0
vertex 105.909317017 39.1250343323 0.0
endloop
endfacet
facet normal 0.477717876434 -0.878513276577 0.0
outer loop
vertex 105.909317017 39.1250343323 0.0
vertex 104.564323425 38.3936538696 50.0
vertex 104.564323425 38.3936538696 0.0
endloop
endfacet
facet normal 0.606225669384 -0.7952927351 0.0
outer loop
vertex 104.564323425 38.3936538696 50.0
vertex 103.346740723 37.4655303955 50.0
vertex 104.564323425 38.3936538696 0.0
endloop
endfacet
facet normal 0.606225669384 -0.7952927351 0.0
outer loop
vertex 104.564323425 38.3936538696 0.0
vertex 103.346740723 37.4655303955 50.0
vertex 103.346740723 37.4655303955 0.0
endloop
endfacet
facet normal 0.720522999763 -0.693431079388 0.0
outer loop
vertex 103.346740723 37.4655303955 50.0
vertex 102.285110474 36.3624229431 50.0
vertex 103.346740723 37.4655303955 0.0
endloop
endfacet
facet normal 0.720522999763 -0.693431079388 0.0
outer loop
vertex 103.346740723 37.4655303955 0.0
vertex 102.285110474 36.3624229431 50.0
vertex 102.285110474 36.3624229431 0.0
endloop
endfacet
facet normal 0.817928373814 -0.575320065022 0.0
outer loop
vertex 102.285110474 36.3624229431 50.0
vertex 101.404304504 35.1101875305 50.0
vertex 102.285110474 36.3624229431 0.0
endloop
endfacet
facet normal 0.817928373814 -0.575320065022 0.0
outer loop
vertex 102.285110474 36.3624229431 0.0
vertex 101.404304504 35.1101875305 50.0
vertex 101.404304504 35.1101875305 0.0
endloop
endfacet
facet normal 0.896165549755 -0.443719863892 0.0
outer loop
vertex 101.404304504 35.1101875305 0.0
vertex 101.404304504 35.1101875305 50.0
vertex 100.724975586 33.7381706238 0.0
endloop
endfacet
facet normal 0.896165549755 -0.443719863892 0.0
outer loop
vertex 101.404304504 35.1101875305 50.0
vertex 100.724975586 33.7381706238 50.0
vertex 100.724975586 33.7381706238 0.0
endloop
endfacet
facet normal 0.953396558762 -0.301720172167 0.0
outer loop
vertex 100.724975586 33.7381706238 0.0
vertex 100.263046265 32.2785339355 50.0
vertex 100.263046265 32.2785339355 0.0
endloop
endfacet
facet normal 0.988280415535 -0.152649387717 0.0
outer loop
vertex 100.263046265 32.2785339355 0.0
vertex 100.263046265 32.2785339355 50.0
vertex 100.029342651 30.7654933929 0.0
endloop
endfacet
facet normal 0.953396558762 -0.301720172167 0.0
outer loop
vertex 100.724975586 33.7381706238 50.0
vertex 100.263046265 32.2785339355 50.0
vertex 100.724975586 33.7381706238 0.0
endloop
endfacet
facet normal 0.988280415535 -0.152649387717 0.0
outer loop
vertex 100.263046265 32.2785339355 50.0
vertex 100.029342651 30.7654933929 50.0
vertex 100.029342651 30.7654933929 0.0
endloop
endfacet
facet normal 1.0 0.0 0.0
outer loop
vertex 100.029342651 30.7654933929 0.0
vertex 100.029342651 29.2345066071 50.0
vertex 100.029342651 29.2345066071 0.0
endloop
endfacet
facet normal 1.0 0.0 0.0
outer loop
vertex 100.029342651 30.7654933929 50.0
vertex 100.029342651 29.2345066071 50.0
vertex 100.029342651 30.7654933929 0.0
endloop
endfacet
facet normal 0.988280415535 0.152649194002 0.0
outer loop
vertex 100.029342651 29.2345066071 0.0
vertex 100.263046265 27.7214641571 50.0
vertex 100.263046265 27.7214641571 0.0
endloop
endfacet
facet normal 0.988280415535 0.152649194002 0.0
outer loop
vertex 100.029342651 29.2345066071 50.0
vertex 100.263046265 27.7214641571 50.0
vertex 100.029342651 29.2345066071 0.0
endloop
endfacet
facet normal 0.953396439552 0.301720529795 0.0
outer loop
vertex 100.263046265 27.7214641571 0.0
vertex 100.724975586 26.2618293762 50.0
vertex 100.724975586 26.2618293762 0.0
endloop
endfacet
facet normal 0.953396439552 0.301720529795 0.0
outer loop
vertex 100.263046265 27.7214641571 50.0
vertex 100.724975586 26.2618293762 50.0
vertex 100.263046265 27.7214641571 0.0
endloop
endfacet
facet normal 0.896165549755 0.443719863892 0.0
outer loop
vertex 100.724975586 26.2618293762 0.0
vertex 101.404304504 24.8898124695 50.0
vertex 101.404304504 24.8898124695 0.0
endloop
endfacet
facet normal 0.896165549755 0.443719863892 0.0
outer loop
vertex 100.724975586 26.2618293762 50.0
vertex 101.404304504 24.8898124695 50.0
vertex 100.724975586 26.2618293762 0.0
endloop
endfacet
facet normal 0.817928731441 0.575319468975 0.0
outer loop
vertex 101.404304504 24.8898124695 0.0
vertex 102.285110474 23.6375751495 50.0
vertex 102.285110474 23.6375751495 0.0
endloop
endfacet
facet normal 0.817928731441 0.575319468975 0.0
outer loop
vertex 101.404304504 24.8898124695 50.0
vertex 102.285110474 23.6375751495 50.0
vertex 101.404304504 24.8898124695 0.0
endloop
endfacet
facet normal 0.720522999763 0.693431079388 0.0
outer loop
vertex 102.285110474 23.6375751495 0.0
vertex 103.346740723 22.5344676971 50.0
vertex 103.346740723 22.5344676971 0.0
endloop
endfacet
facet normal 0.720522999763 0.693431079388 0.0
outer loop
vertex 102.285110474 23.6375751495 50.0
vertex 103.346740723 22.5344676971 50.0
vertex 102.285110474 23.6375751495 0.0
endloop
endfacet
facet normal 0.606224834919 0.795293331146 0.0
outer loop
vertex 103.346740723 22.5344676971 0.0
vertex 104.564323425 21.6063461304 50.0
vertex 104.564323425 21.6063461304 0.0
endloop
endfacet
facet normal 0.606224834919 0.795293331146 0.0
outer loop
vertex 103.346740723 22.5344676971 50.0
vertex 104.564323425 21.6063461304 50.0
vertex 103.346740723 22.5344676971 0.0
endloop
endfacet
facet normal 0.477718830109 0.87851279974 0.0
outer loop
vertex 104.564323425 21.6063461304 0.0
vertex 105.909317017 20.8749637604 50.0
vertex 105.909317017 20.8749637604 0.0
endloop
endfacet
facet normal 0.477718830109 0.87851279974 0.0
outer loop
vertex 104.564323425 21.6063461304 50.0
vertex 105.909317017 20.8749637604 50.0
vertex 104.564323425 21.6063461304 0.0
endloop
endfacet
facet normal 0.338017851114 0.941139698029 0.0
outer loop
vertex 105.909317017 20.8749637604 50.0
vertex 107.35018158 20.357465744 50.0
vertex 105.909317017 20.8749637604 0.0
endloop
endfacet
facet normal 0.338017851114 0.941139698029 0.0
outer loop
vertex 105.909317017 20.8749637604 0.0
vertex 107.35018158 20.357465744 50.0
vertex 107.35018158 20.357465744 0.0
endloop
endfacet
facet normal 0.19039131701 0.981708228588 0.0
outer loop
vertex 107.35018158 20.357465744 50.0
vertex 108.853164673 20.0659790039 50.0
vertex 107.35018158 20.357465744 0.0
endloop
endfacet
facet normal 0.19039131701 0.981708228588 0.0
outer loop
vertex 107.35018158 20.357465744 0.0
vertex 108.853164673 20.0659790039 50.0
vertex 108.853164673 20.0659790039 0.0
endloop
endfacet
facet normal 0.0383030772209 0.999266147614 0.0
outer loop
vertex 108.853164673 20.0659790039 50.0
vertex 110.383026123 20.0073375702 50.0
vertex 108.853164673 20.0659790039 0.0
endloop
endfacet
facet normal 0.0383030772209 0.999266147614 0.0
outer loop
vertex 108.853164673 20.0659790039 0.0
vertex 110.383026123 20.0073375702 50.0
vertex 110.383026123 20.0073375702 0.0
endloop
endfacet
facet normal -0.114683881402 0.993402063847 0.0
outer loop
vertex 110.383026123 20.0073375702 50.0
vertex 111.903907776 20.1829166412 50.0
vertex 110.383026123 20.0073375702 0.0
endloop
endfacet
facet normal -0.114683881402 0.993402063847 0.0
outer loop
vertex 110.383026123 20.0073375702 0.0
vertex 111.903907776 20.1829166412 50.0
vertex 111.903907776 20.1829166412 0.0
endloop
endfacet
facet normal -0.264982044697 0.964253306389 0.0
outer loop
vertex 111.903907776 20.1829166412 50.0
vertex 113.3801651 20.5886001587 50.0
vertex 111.903907776 20.1829166412 0.0
endloop
endfacet
facet normal -0.264982044697 0.964253306389 0.0
outer loop
vertex 111.903907776 20.1829166412 0.0
vertex 113.3801651 20.5886001587 50.0
vertex 113.3801651 20.5886001587 0.0
endloop
endfacet
facet normal -0.409067571163 0.912504136562 0.0
outer loop
vertex 113.3801651 20.5886001587 50.0
vertex 114.777198792 21.2148780823 50.0
vertex 113.3801651 20.5886001587 0.0
endloop
endfacet
facet normal -0.409067571163 0.912504136562 0.0
outer loop
vertex 113.3801651 20.5886001587 0.0
vertex 114.777198792 21.2148780823 50.0
vertex 114.777198792 21.2148780823 0.0
endloop
endfacet
facet normal -0.54356700182 0.839365720749 0.0
outer loop
vertex 114.777198792 21.2148780823 50.0
vertex 116.062255859 22.0470714569 50.0
vertex 114.777198792 21.2148780823 0.0
endloop
endfacet
facet normal -0.54356700182 0.839365720749 0.0
outer loop
vertex 114.777198792 21.2148780823 0.0
vertex 116.062255859 22.0470714569 50.0
vertex 116.062255859 22.0470714569 0.0
endloop
endfacet
facet normal -0.665326654911 0.746552407742 0.0
outer loop
vertex 116.062255859 22.0470714569 50.0
vertex 117.205215454 23.0656757355 50.0
vertex 116.062255859 22.0470714569 0.0
endloop
endfacet
facet normal -0.665326654911 0.746552407742 0.0
outer loop
vertex 116.062255859 22.0470714569 0.0
vertex 117.205215454 23.0656757355 50.0
vertex 117.205215454 23.0656757355 0.0
endloop
endfacet
facet normal -0.771489620209 0.636241972446 0.0
outer loop
vertex 117.205215454 23.0656757355 50.0
vertex 118.179290771 24.2468128204 50.0
vertex 117.205215454 23.0656757355 0.0
endloop
endfacet
facet normal -0.771489620209 0.636241972446 0.0
outer loop
vertex 117.205215454 23.0656757355 0.0
vertex 118.179290771 24.2468128204 50.0
vertex 118.179290771 24.2468128204 0.0
endloop
endfacet
facet normal -0.859569132328 0.511019587517 0.0
outer loop
vertex 118.179290771 24.2468128204 50.0
vertex 118.961654663 25.5628013611 50.0
vertex 118.179290771 24.2468128204 0.0
endloop
endfacet
facet normal -0.859569132328 0.511019587517 0.0
outer loop
vertex 118.179290771 24.2468128204 0.0
vertex 118.961654663 25.5628013611 50.0
vertex 118.961654663 25.5628013611 0.0
endloop
endfacet
facet normal -0.927501738071 0.373818784952 0.0
outer loop
vertex 118.961654663 25.5628013611 50.0
vertex 119.533966064 26.982793808 50.0
vertex 118.961654663 25.5628013611 0.0
endloop
endfacet
facet normal -0.927501738071 0.373818784952 0.0
outer loop
vertex 118.961654663 25.5628013611 0.0
vertex 119.533966064 26.982793808 50.0
vertex 119.533966064 26.982793808 0.0
endloop
endfacet
facet normal -0.973695635796 0.227852553129 0.0
outer loop
vertex 119.533966064 26.982793808 50.0
vertex 119.882804871 28.4735069275 50.0
vertex 119.533966064 26.982793808 0.0
endloop
endfacet
facet normal -0.973695635796 0.227852553129 0.0
outer loop
vertex 119.533966064 26.982793808 0.0
vertex 119.882804871 28.4735069275 50.0
vertex 119.882804871 28.4735069275 0.0
endloop
endfacet
facet normal -0.997065842152 0.0765488296747 0.0
outer loop
vertex 119.882804871 28.4735069275 50.0
vertex 120.0 30.0 50.0
vertex 119.882804871 28.4735069275 0.0
endloop
endfacet
facet normal -0.997065842152 0.0765488296747 0.0
outer loop
vertex 119.882804871 28.4735069275 0.0
vertex 120.0 30.0 50.0
vertex 120.0 30.0 0.0
endloop
endfacet
